<svg xmlns="http://www.w3.org/2000/svg" viewBox="0 0 347.92 213.59"><defs><style>.cls-1,.cls-6{fill:none;}.cls-2,.cls-3{fill:#fff;}.cls-3{opacity:0.35;}.cls-4{fill:#48bea0;}.cls-5{fill:#00b29e;}.cls-6{stroke:#48bea0;stroke-linecap:round;stroke-linejoin:round;stroke-width:0;}.cls-7{fill:#3c4950;}.cls-8{fill:#b12c24;}.cls-9{fill:#111e11;}.cls-10{fill:#eac01e;}.cls-11{fill:#3c4a4f;}</style></defs><g id="Layer_2" data-name="Layer 2"><g id="Layer_1-2" data-name="Layer 1"><path class="cls-1" d="M88.31,83.31a7.72,7.72,0,0,0-1.79.14l47.63-.13h-.41C118.6,83.31,103.45,83.37,88.31,83.31Z"/><path class="cls-1" d="M58.27,88.15l.65-.3-1.09.36Z"/><path class="cls-1" d="M37.84,165.06c.17-.4.36-.8.55-1.19l-1.86.92,1.31.26Z"/><path class="cls-1" d="M311.65,161.31l-2.5.23.79.05A2.55,2.55,0,0,0,311.65,161.31Z"/><path class="cls-2" d="M223,166.71c5.84-15.8,20.41-24.73,37.59-23.24,11.75,1,22.38,8.78,27.77,19.47l1.62-.08a8.64,8.64,0,0,1,4.43-.89,130,130,0,0,1,14.76-.43l2.5-.23c.43-.34.53-1,.35-2-.91-5.53-1.73-11.09-2.41-16.65-.21-1.72-.91-2-2.45-2-7.59.11-7.49.06-8.37-7.46q-.74-6.27-1.86-12.49l-.09-.49q-1.12-6.21-2.65-12.34c-1.22-4.86,0-6.8,4.93-7,2.73-.11,2.8-1.06,2.21-3.19C299.66,91.72,295,88.72,290,86.3a29.48,29.48,0,0,0-12.82-2.93q-71.52,0-143-.05l-47.63.13c-.86.24-1.21.87-.69,2.52a9.11,9.11,0,0,1,.06,3.3A2.83,2.83,0,0,1,84,91.8c-2.53,1-7.7-.54-9.39-2.81a14.91,14.91,0,0,1-2.56-5.52l-5.57-.26a10.11,10.11,0,0,1-5.71,4c-.64.19-1.26.41-1.89.63l-.65.3-.44.06C44,93.17,33.13,102,25,114.38c-8.66,13.09-13.25,27.85-17.24,42.84-.4,1.49-.15,2,1.56,2.18,8.19.94,16.23,2.85,24.34,4.28a2.51,2.51,0,0,1,1.77.88l1.14.23,1.86-.92c5.22-10.91,15.75-19.18,27.85-20.44,22.06-2.3,38,14.09,39.74,31.16a36.29,36.29,0,0,1-1.44,14.85c-.63,1.93-.28,2.46,1.75,2.65,21.87,2,43.79,2.72,65.74,3.14a388.92,388.92,0,0,0,47.9-1.95,6.06,6.06,0,0,1,2.58,0l.76-.12.32-.84A33.47,33.47,0,0,1,223,166.71Zm11.6-80.62c.31.71,2.85,54.15,2.38,55.07C235.63,122.54,232.62,104.49,234.58,86.09ZM42.66,124.55a75.47,75.47,0,0,1-10.45,16.82,26.28,26.28,0,0,1-5.27,4.77,5.08,5.08,0,0,1-5.54.31,5,5,0,0,1-2.83-4.76,18.8,18.8,0,0,1,.67-5.28A45.93,45.93,0,0,1,34,114.28a13.92,13.92,0,0,1,3.87-2.42c3.67-1.4,6.21.37,6.25,4.33,0,.6,0,1.19,0,2.21C44.51,120.37,43.67,122.45,42.66,124.55Zm31.19,8.58c-.73-12.55,1.88-25,1.65-37.48C77.06,108.23,74.61,120.64,73.85,133.13Zm16.89-20.8,5.07,2.86-5.07,2.86Zm5.4,3.5v5.62l-5-2.82Zm-5.4,3.38,5.07,2.86L90.74,125Zm5.4,3.51v5.66l-5-2.83ZM90,112h0v6l-3.86-2.19A11.91,11.91,0,0,1,90,112Zm-4.23,4.43h0l3.91,2.21-5.37,3A11.91,11.91,0,0,1,85.78,116.42Zm-1.46,6.09,5.37,3-3.91,2.22A11.77,11.77,0,0,1,84.32,122.51ZM90,132.19a12.21,12.21,0,0,1-3.86-3.81L90,126.19Zm0-7.28-5-2.84,5-2.8Zm.73,1.23,5,2.86-5,2.84Zm5.4,7.87a12.15,12.15,0,0,1-5.35-1.38v0l5.35-3Zm0-19.46-5.35-3a12.29,12.29,0,0,1,5.35-1.39Zm132,.71h3.58l-5.8,8.56v5.69H223v-5.69l-5.8-8.56h3.63l3.63,5ZM210.54,92c.93,0,1.87,0,2.8,0,2.11,0,4.24.09,6.35,0,2.38-.14,3.35.89,3.45,3.23.16,4.12.23,4.08-3.84,4.56s-8.11.38-12.17.61c-1.73.1-2.29-.5-2.38-2.27C204.47,92.08,204.39,92.09,210.54,92Zm-23.7,32.42v-9.14h13.72v2.87H189.72V121h8.35v2.87h-8.35v2.82h10.84v2.87H186.84Zm-18.17-9.09h2.77v4.25h-2.77Zm0,5.58h13.56v-5.63H185v14.25h-2.77v-5.59H171.44v5.59h-2.77Zm-19.31,5.64h13.56a.69.69,0,0,0,.54-.21.66.66,0,0,0,.22-.54v-1.16a.66.66,0,0,0-.22-.54.69.69,0,0,0-.54-.21h-9.76a3.34,3.34,0,0,1-1.47-.32,3.71,3.71,0,0,1-1.19-.8,4.07,4.07,0,0,1-.81-1.17,3,3,0,0,1-.33-1.43V119a3.12,3.12,0,0,1,.33-1.44,4.37,4.37,0,0,1,.81-1.17,4.74,4.74,0,0,1,1.19-.79,3.21,3.21,0,0,1,1.47-.32h13.56v3H153.16a.72.72,0,0,0-.55.21.68.68,0,0,0-.21.53v1.17a.67.67,0,0,0,.21.53.73.73,0,0,0,.55.22h9.76a3.16,3.16,0,0,1,1.46.32,4.54,4.54,0,0,1,1.2.79,4.88,4.88,0,0,1,.81,1.17,3.43,3.43,0,0,1,.33,1.44v1.11a3.06,3.06,0,0,1-.33,1.44,3.92,3.92,0,0,1-.81,1.17,4.57,4.57,0,0,1-1.2.8,3.63,3.63,0,0,1-1.46.32H149.36ZM133.9,124.4v-9.14h13.78v2.87H136.83V121h8.35v2.87h-8.35v2.82h10.85v2.87H133.9Zm-20.34-6.06v-3h14.21a3.94,3.94,0,0,1,3.64,2.34c.59.64.16,10.85.32,11.8h-3.09c-.22-.37.54-11.43-.54-11.11-.17-.1-7.22,0-11.45,0v11.27h-3.09Zm10.63,1.54v9.63H121.1v-9.63ZM103,112a12,12,0,0,1,3.83,3.8L103,118Zm0,7.24,5.08,2.84L103,125Zm-6.16-9.11a12.36,12.36,0,0,1,5.4,1.42l-5.4,3Zm5.43,2.22V118l-5-2.83Zm-5.43,3.42,5,2.83-5,2.86Zm5.43,3.44v5.69l-5-2.85Zm-5.43,3.44,5.08,2.88-5.08,2.86Zm0,11.36V129.6l5.36,3A12.37,12.37,0,0,1,96.86,134Zm5.44-2.16-5-2.87,5-2.83Zm.72.31h0v-6l3.85,2.18A12,12,0,0,1,103,132.18Zm4.22-4.46-3.84-2.16,5.27-3A11.77,11.77,0,0,1,107.24,127.72Zm-3.89-9.1,3.88-2.19a11.74,11.74,0,0,1,1.45,5.18Zm8.17,66.76c29.92,1.47,59.86,2.12,89.8,2.39C171.34,188.65,141.42,187.48,111.52,185.38Zm96.8-61.67H207V121h6v-3H205.5l.05,11.48h-2.87V115.26H214a2.27,2.27,0,0,1,2.28,2.23v4a2.27,2.27,0,0,1-2.28,2.23H211.9l5.26,5.85h-3.58Zm6.91,59.59c-4.76-12.3,5.23-37.58,16.37-39.57C217.59,153.88,214.8,168,215.23,183.3Z"/><path class="cls-2" d="M19.74,142.38c0-.07,0-.13,0-.2A1.36,1.36,0,0,0,19.74,142.38Z"/><path class="cls-2" d="M19.83,143c0-.19-.07-.37-.09-.55A4.85,4.85,0,0,0,19.83,143Z"/><path class="cls-3" d="M87.21,63.82A63,63,0,0,1,97.59,77c1.19,1.95,2.76,1.17,4.24,1.33.53,0,1.46.14,1.36-.69-.22-1.8.73-3.48.28-5.29-.6-2.39-1-4.83-1.53-7.24-.39-1.79.24-3.11,1.93-3.62s2.69.68,3.25,2.12a35.09,35.09,0,0,1,1.14,3.65c.5,1.86.82,3.58,3.16,4.38,1.87.63,2.43,2.78,2.52,4.7.07,1.36.45,1.92,1.92,1.91q14.92-.08,29.86,0c1.21,0,1.84-.29,2-1.64.3-2.44,1.71-5.2,1-7.2s-4.2-1.27-6.35-2.13c-8.24-3.3-15.59-7.73-18.21-16.85-3.09-10.74.5-23.93,9.2-31.1,4.18-3.44,9.38-5,14.52-5.87,7.32-1.27,14.68-2.88,22.22-2.23a7.26,7.26,0,0,1,2,.25c-4.88,1.19-10,.28-15.31,1.41,6.7,2.72,13.26.36,19.62,1.75L164,15.36c9.79,5.52,15.71,13.1,16.43,24s-4.6,19-13.31,25.48c1.55-.26,2.7-.54,3.87-.64,3.14-.27,4.59,1.06,4.73,4.2a37,37,0,0,1-.64,7.87c-.25,1.48.13,2,1.62,2,2.64,0,5.28.07,7.91.07l15.11,0,31.45-.17c.68-.33.89-1,.88-2.29q-.09-19.9.09-39.81a5.34,5.34,0,0,0-.89-3.19c-.32-.37-.71-.82-1.19-1.33a83.26,83.26,0,0,0-33.89-19.79C183.78,8,171.21,5.82,158.22,6.49c-11.9.62-22.65,4.66-33.09,10.18C107.46,26,94.62,40,84.93,57.2c-.77,1.37-1.52,2.74-2.27,4.12l.79.43C85.14,61.69,86.18,62.84,87.21,63.82Z"/><path class="cls-2" d="M159.77,78.29l2,0-2.27,0Z"/><path class="cls-2" d="M149.66,78.24c2.29,0,4.58,0,6.88,0,.82,0,.93-.66,1.06-1.21a18,18,0,0,1,8-11.33,32.4,32.4,0,0,1-13.82,3c-1.05,0-1.78.32-1.94,1.52-.3,2.18-.68,4.36-1,6.54C148.7,77.5,148.63,78.23,149.66,78.24Z"/><path class="cls-2" d="M158.43,77.13a2,2,0,0,0,0,.57,4.33,4.33,0,0,1,0-.55Z"/><path class="cls-2" d="M158.42,66.57a23.42,23.42,0,0,0,14.78-8.82c6.68-8.64,7.79-18.09,2.92-27.74S163,15,151.93,14.22c-4.1-.3-7.24,2.07-11,2.55a13.92,13.92,0,0,0-6.66,3c-8.62,6.62-12.41,22.45-7.84,32.35.89,2,1.95,2.67,4.11,2.15A28.47,28.47,0,0,0,148.13,41.7c.23-.36.39-.76.63-1.11s.35-.75,1.21-.37c-4.7,8.45-11.66,13.55-21.46,15.57C136.9,64.83,146.65,68.73,158.42,66.57ZM135.9,34.21c-.81,1.09-1.58,2.48-3.18,1.94s-1.41-2.1-1.43-3.46a7.67,7.67,0,0,1,1.62-4.7,2.17,2.17,0,0,1,2.44-.91A2.2,2.2,0,0,1,137,29.14,6.89,6.89,0,0,1,135.9,34.21ZM134.42,24a2.4,2.4,0,0,1,3.3-.59c1.49.68,2.17,1.89,2.31,4.23C138.43,25.32,137.27,23.46,134.42,24Z"/><polygon class="cls-4" points="96.86 115.79 96.86 121.48 101.9 118.62 96.86 115.79"/><polygon class="cls-4" points="96.86 122.67 96.86 128.41 101.94 125.55 96.86 122.67"/><polygon class="cls-5" points="96.14 115.83 91.17 118.63 96.14 121.45 96.14 115.83"/><path class="cls-5" d="M90,132.19v-6l-3.86,2.19A12.21,12.21,0,0,0,90,132.19Z"/><polygon class="cls-5" points="96.14 128.38 96.14 122.72 91.15 125.55 96.14 128.38"/><polygon class="cls-4" points="90.74 126.14 90.74 131.84 95.78 129 90.74 126.14"/><polygon class="cls-5" points="102.3 131.87 102.3 126.17 97.25 129 102.3 131.87"/><path class="cls-5" d="M107.24,127.72a11.77,11.77,0,0,0,1.43-5.11l-5.27,3Z"/><polygon class="cls-4" points="103.02 119.26 103.02 124.95 108.1 122.11 103.02 119.26"/><polygon class="cls-5" points="102.29 118.02 102.29 112.37 97.28 115.19 102.29 118.02"/><polygon class="cls-5" points="102.29 124.92 102.29 119.23 97.26 122.08 102.29 124.92"/><polygon class="cls-4" points="90.74 119.21 90.74 124.97 95.81 122.08 90.74 119.21"/><path class="cls-5" d="M96.14,114.55v-4.4a12.29,12.29,0,0,0-5.35,1.39Z"/><polygon class="cls-4" points="90.74 112.33 90.74 118.05 95.81 115.19 90.74 112.33"/><path class="cls-5" d="M90,112h0a11.91,11.91,0,0,0-3.86,3.81L90,118Z"/><path class="cls-4" d="M96.86,110.15v4.44l5.4-3A12.36,12.36,0,0,0,96.86,110.15Z"/><path class="cls-4" d="M84.32,122.51a11.77,11.77,0,0,0,1.46,5.26l3.91-2.22Z"/><path class="cls-4" d="M85.78,116.42a11.91,11.91,0,0,0-1.46,5.24l5.37-3Z"/><polygon class="cls-4" points="85.77 116.41 85.78 116.42 85.78 116.41 85.77 116.41"/><path class="cls-5" d="M90.79,132.63A12.15,12.15,0,0,0,96.14,134v-4.39l-5.35,3Z"/><path class="cls-4" d="M103,112v6l3.83-2.17A12,12,0,0,0,103,112Z"/><line class="cls-6" x1="103.02" y1="132.18" x2="103.02" y2="132.19"/><path class="cls-4" d="M103,132.18a12,12,0,0,0,3.85-3.83L103,126.17Z"/><path class="cls-5" d="M103.35,118.62l5.33,3a11.74,11.74,0,0,0-1.45-5.18Z"/><path class="cls-4" d="M96.86,134a12.37,12.37,0,0,0,5.36-1.39l-5.36-3Z"/><polygon class="cls-5" points="90.01 124.91 90.01 119.27 85.03 122.08 90.01 124.91"/><polygon class="cls-7" points="200.56 126.64 189.72 126.64 189.72 124.4 189.72 123.82 198.07 123.82 198.07 120.95 189.72 120.95 189.72 118.13 200.56 118.13 200.56 115.26 186.84 115.26 186.84 117.49 186.84 118.13 186.84 120.95 186.84 124.4 186.84 129.51 200.56 129.51 200.56 126.64"/><polygon class="cls-7" points="147.68 126.64 136.83 126.64 136.83 124.4 136.83 123.82 145.18 123.82 145.18 120.95 136.83 120.95 136.83 118.13 147.68 118.13 147.68 115.26 133.9 115.26 133.9 117.49 133.9 118.13 133.9 120.95 133.9 124.4 133.9 129.51 147.68 129.51 147.68 126.64"/><path class="cls-7" d="M164.38,129.19a4.57,4.57,0,0,0,1.2-.8,3.92,3.92,0,0,0,.81-1.17,3.06,3.06,0,0,0,.33-1.44v-1.11a3.43,3.43,0,0,0-.33-1.44,4.88,4.88,0,0,0-.81-1.17,4.54,4.54,0,0,0-1.2-.79,3.16,3.16,0,0,0-1.46-.32h-9.76a.73.73,0,0,1-.55-.22.67.67,0,0,1-.21-.53V119a.68.68,0,0,1,.21-.53.72.72,0,0,1,.55-.21h13.56v-3H153.16a3.21,3.21,0,0,0-1.47.32,4.74,4.74,0,0,0-1.19.79,4.37,4.37,0,0,0-.81,1.17,3.12,3.12,0,0,0-.33,1.44v1.17a3,3,0,0,0,.33,1.43,4.07,4.07,0,0,0,.81,1.17,3.71,3.71,0,0,0,1.19.8,3.34,3.34,0,0,0,1.47.32h9.76a.69.69,0,0,1,.54.21.66.66,0,0,1,.22.54v1.16a.66.66,0,0,1-.22.54.69.69,0,0,1-.54.21H149.36v3h13.56A3.63,3.63,0,0,0,164.38,129.19Z"/><polygon class="cls-7" points="171.44 123.92 182.23 123.92 182.23 129.51 185 129.51 185 115.26 182.23 115.26 182.23 120.89 168.67 120.89 168.67 129.51 171.44 129.51 171.44 123.92"/><rect class="cls-7" x="168.67" y="115.31" width="2.77" height="4.25"/><polygon class="cls-7" points="217.22 115.26 223.02 123.82 223.02 129.51 225.95 129.51 225.95 123.82 231.75 115.26 228.17 115.26 224.49 120.26 220.85 115.26 217.22 115.26"/><path class="cls-7" d="M211.9,123.71H214a2.27,2.27,0,0,0,2.28-2.23v-4a2.27,2.27,0,0,0-2.28-2.23H202.68v14.19h2.87L205.5,118h7.43v3h-6v2.71h1.35l5.26,5.85h3.58Z"/><path class="cls-7" d="M116.65,118.29c4.23,0,11.28-.05,11.45,0,1.08-.32.32,10.74.54,11.11h3.09c-.16-.95.27-11.16-.32-11.8a3.94,3.94,0,0,0-3.64-2.34H113.56v14.25h3.09Z"/><rect class="cls-7" x="121.1" y="119.88" width="3.09" height="9.62"/><path class="cls-8" d="M302.48,103.86c-.11-.57,0-1.41-.68-1.54a7.9,7.9,0,0,0-6.13.89c-1.63,1.05-1,2.48-.62,3.88a210.3,210.3,0,0,1,5.15,28c.51,4.12.44,4.13,5.21,4.14.32,0,1.25-.12,2.18-.18,1.09-.08,1.4-.57,1.19-1.68C306.65,126.24,304.58,115.05,302.48,103.86Z"/><path class="cls-8" d="M296.91,120.68l-.09-.49Z"/><path class="cls-7" d="M269.72,81c-.42-.89-1.08-2.23-1.94-4,.38.84.75,1.69,1.12,2.54A6.17,6.17,0,0,0,269.72,81Z"/><path class="cls-7" d="M76.28,69.86a11.88,11.88,0,0,0,2-3.22c6.47-12.09,13.14-24.08,23.11-33.74C116.5,18.28,134,8.06,155.14,5.34c11-1.42,21.92.33,32.63,2.89,16.87,4,32,11.33,44.31,23.88a4.37,4.37,0,0,1,1.39,3.52c-.2,13.61-.37,27.22-.37,40.83,0,2.42-.83,3-3,3q-45.81,0-91.62.12c-15.31,0-30.62,0-45.93-.08A26.09,26.09,0,0,1,87,79c3.17-1,6.44-.57,9.67-.89C95,74.28,87.49,65.28,83,61.78a2.48,2.48,0,0,1,.47,0l-.79-.43c-1.2,2.2-2.4,4.41-3.65,6.59a2.56,2.56,0,0,0,.24,3.38A26.45,26.45,0,0,1,84,79.69c.67,2,1.77,2.48,3.74,2.48,25.61,0,51.22,0,76.82.06q50.67,0,101.32,0c3.14,0,3.15,0,1.9-2.94-8.49-19.81-19.17-38.15-35.78-52.4-15.64-13.44-33.4-23-54-24.95-38.46-3.58-69.46,10.23-91.56,42.43C78.59,55.65,72.71,68,67.76,80.81a11.51,11.51,0,0,1-1.24,2.4l5.57.26A14.25,14.25,0,0,1,76.28,69.86Zm162.29-29.2a12.57,12.57,0,0,1,.22-1.4,24.84,24.84,0,0,1,5.45,5.37c8.29,9.95,13.91,21.45,19.08,33.2.63,1.43.19,1.72-1.18,1.83a193.76,193.76,0,0,1-20.87.5c-1.52,0-2.79-.14-2.78-2.31C238.58,65.45,238.55,53.06,238.57,40.66Z"/><path class="cls-7" d="M230.36,31.83l-.31-.28c.48.51.87,1,1.19,1.33A6.9,6.9,0,0,0,230.36,31.83Z"/><path class="cls-7" d="M229.52,78.42a3.64,3.64,0,0,0,1.64-.25l-31.45.17C209.65,78.35,219.59,78.36,229.52,78.42Z"/><path class="cls-9" d="M78.34,71.52c-.78-1.12-1.27-.93-2.1,0A11.57,11.57,0,0,0,73,79.56c-.09,6.78,2.2,10.08,7.24,11.17,3.43.74,5-.64,4.48-4.15A35.2,35.2,0,0,0,78.34,71.52Z"/><path class="cls-3" d="M239.63,41.85q0,17.85-.07,35.7c0,1.12.46,1.46,1.52,1.46q9.71,0,19.38-.45c1.59-.08,1.85-.62,1.15-2.06C259,71.24,256.68,65.86,254,60.67c-3.67-7.05-8.69-13.15-13.85-19.27C239.74,41.74,239.63,41.8,239.63,41.85Z"/><path class="cls-7" d="M208.18,99.06c4.07-.21,8.15-.36,12.22-.55.59,0,1.12-.06,1.41-.79,1.12-3-.06-4.69-3.23-4.68h-4.33v.15c-2,0-4.08,0-6.12,0-1.23,0-2.79-.14-2.35,1.93C206.11,96.7,204.9,99.23,208.18,99.06Z"/><path class="cls-10" d="M42.53,116.84c-.3-.08-.78.23-1.09.47a33.67,33.67,0,0,0-6,6.23c-3.53,4.51-6,9.65-8.74,14.64-.85,1.57-1.79,3.09-2.69,4.63,3.14-8.86,6.79-17.42,13.76-24a11.78,11.78,0,0,1,3.71-2.65c.67-.26,1.67-.19,1.35-1.37-.26-1-.52-2-1.87-2a5.25,5.25,0,0,0-4.52,1.83,68.92,68.92,0,0,0-8.64,13.19c-1.73,3.59-3.53,7.14-5.3,10.7A63.46,63.46,0,0,1,29.1,121.6c-4.3,5.29-7.61,11.06-9.07,17.75a11.73,11.73,0,0,0-.33,2.27c0,.19,0,.38,0,.56s0,.13,0,.2v0c0,.18.06.36.09.55.56,2.62,3,3.75,5.69,2.24a17,17,0,0,0,3.4-2.65c5.26-5.11,8.93-11.33,12-17.88a15.32,15.32,0,0,0,2-6.54C42.9,117.67,43.19,117,42.53,116.84ZM30.32,134.93c3.11-2.37,4.57-5.73,5.83-9.5A7.84,7.84,0,0,1,30.32,134.93Z"/><path class="cls-7" d="M170.38,65.29C165,65.66,159,71.6,158.43,77v.13a4.33,4.33,0,0,0,0,.55c.14.46.53.56,1,.59l2.27,0h4.4c.28-.13.28-.13,0,0,2,0,4.32-.2,6.27-.14,1.36,0,1.63-.3,1.67-1.71.07-2.55.31-5,.27-7.55C174.34,65.94,173.38,65.09,170.38,65.29Z"/><path class="cls-2" d="M71.35,174c-1.85,0-3.71,2.41-3.72,4.79a4.36,4.36,0,0,0,4.17,4.54A4.9,4.9,0,0,0,76.63,179C76.68,176.79,73.68,173.94,71.35,174Z"/><path class="cls-2" d="M83.43,160.81c-1.58.69-3.4-.12-5-1.55,1.94.48,3.62,1.56,5.53.69-.33-1.17-1.32-1.42-2.09-1.81-8.57-4.39-17-4-24.79,1.61-8.09,5.79-11.15,13.92-9.36,23.7A23.46,23.46,0,1,0,87.07,162C86.06,161,85.23,160,83.43,160.81Zm-13.58-1.89v7.86A11.26,11.26,0,0,1,69.85,158.92Zm-9.12-.32c-.76,3.06-3,4.67-5.72,5.75C57,162.46,59.13,160.82,60.73,158.6ZM50.61,186.87c0-3.14.32-6.31-1-9.36C51.73,180.4,51.57,183.59,50.61,186.87Zm2-15.88a12.18,12.18,0,0,1,7.51,2.58Zm5.94,22.26a18.21,18.21,0,0,1,4.49-6.66A23.12,23.12,0,0,1,58.57,193.25Zm3.62-10.55A2.21,2.21,0,0,1,60,180.6c-.15-1.23,1-1.08,1.59-1.46a2.3,2.3,0,0,1,2.14,2.29C63.8,182.35,63.05,182.77,62.19,182.7ZM63.43,171c-.2-.7.09-1.22.83-1.24,1,0,.52.42.25.86s0,.84.48.86a3.44,3.44,0,0,0,1.46-.22c.46-.2.47-.64.1-1s-.67-.55-.24-1.18c1.21.23,1.45,1.15,1.35,2.17s-1,1.24-1.88,1.26A2.11,2.11,0,0,1,63.43,171Zm3.35,28.52c2.51-1.34,5.07-1,7.63,0ZM72,184.23c-2.8,0-5.13-2.6-5.15-5.76s1.85-5.45,4.43-5.4c2.82.05,6,3.34,6,6.16A5.1,5.1,0,0,1,72,184.23Zm5.14-12.61a2.2,2.2,0,0,1-2-2.25,1.21,1.21,0,0,1,1.34-1.43c1.49,0,2,1.13,2.2,2.3C78.86,171.18,78.25,171.6,77.17,171.62Zm4.36,13.28c-1.36,0-2.48-.71-2.45-2.06A2.14,2.14,0,0,1,81.34,181c1.24,0,1.85,1.06,2,2.25C83.34,184.51,82.62,184.93,81.53,184.9ZM92.65,177c-1.37,3.05-1.15,6.29-1.55,9.44C90.48,183.16,90.57,179.94,92.65,177ZM81,174.83c1.24-2.23,5.84-5.39,8.78-5.87Z"/><path class="cls-2" d="M272.48,161.59c-.87-.78-1.53-1.41-3-.84-1.73.66-3.66.1-5.75-1.57,2.35.47,4,1.59,6.52.66a21.94,21.94,0,0,0-12.81-4.56,23.52,23.52,0,1,0,15.08,6.31Zm-17.27-2.67a24.53,24.53,0,0,1,.46,8.15A19,19,0,0,1,255.21,158.92Zm-8.63-.33c-.76,3-3,4.59-5.69,5.78C242.74,162.4,245,160.86,246.58,158.59Zm-10.51,28.82c.36-3.67.72-6.87-1.17-10.38C237.38,179.58,237.83,184.1,236.07,187.41ZM238.45,171a11.77,11.77,0,0,1,7.5,2.57Zm5.9,22.29a18.13,18.13,0,0,1,4.52-6.66A21.46,21.46,0,0,1,244.35,193.27ZM248,182.7a2.17,2.17,0,0,1-2.15-2.11c-.1-1.14,1-1.18,1.78-1.43a2.28,2.28,0,0,1,1.94,2.31C249.63,182.39,248.85,182.77,248,182.7ZM249.28,171c-.17-.52-.1-1,.52-1.22.47-.14,1-.05.67.54-.39.82-.12,1.11.64,1.15a1.45,1.45,0,0,0,1.38-.44c.45-.63-.27-.83-.47-1.23-.09-.17,0-.43,0-.81a1.83,1.83,0,0,1,1.54,2.22c-.08,1-1,1.22-1.9,1.24A2.13,2.13,0,0,1,249.28,171Zm2.73,28.9c1.91-1.67,6.2-1.83,8.69-.36C257.73,199.65,255,199.2,252,199.92Zm5.92-15.69c-2.87,0-5.38-2.77-5.33-5.95.05-2.93,2-5.16,4.47-5.15a6.62,6.62,0,0,1,6.07,6.29A5.08,5.08,0,0,1,257.93,184.23Zm4.95-12.63a2.22,2.22,0,0,1-1.92-2.33,1.2,1.2,0,0,1,1.45-1.32c1.44.11,1.94,1.19,2.1,2.4C264.64,171.32,264,171.63,262.88,171.6Zm4.52,13.34c-1.32-.12-2.47-.74-2.48-2.08a2.11,2.11,0,0,1,2.24-1.85,2.14,2.14,0,0,1,2,2.27C269.22,184.48,268.5,184.93,267.4,184.94Zm-.14-10.44c-.15-.21-.3-.42-.44-.64a67.67,67.67,0,0,1,8.39-5.5c.15.2.29.41.44.62ZM278.49,177c-1.23,3.13-1.33,6.41-1.52,9.67C276.32,183.24,276.37,179.94,278.49,177Z"/><path class="cls-2" d="M257,174c-1.85.14-3.69,2.67-3.58,4.92a4.46,4.46,0,0,0,4.63,4.37,4.75,4.75,0,0,0,4.34-4.49C262.32,176.48,259.34,173.82,257,174Z"/><path class="cls-11" d="M294.69,188a65.4,65.4,0,0,0,20.56-.87,3.64,3.64,0,0,0,2.72-2,19,19,0,0,0,2.23-8.82,82.33,82.33,0,0,0-.27-9.42c-.21-2.49-1.49-3.37-3.72-3.6a119.54,119.54,0,0,0-19.11-.14c-2.46.13-4.94.65-8,.27a7.87,7.87,0,0,1,.83-.58l-1.62.08a34.73,34.73,0,0,1,3.19,9.46,36.4,36.4,0,0,1-.6,15.27h0a8.7,8.7,0,0,0,.9.32A5.89,5.89,0,0,1,294.69,188Z"/><path class="cls-11" d="M32.84,164.63c-8.49-1.22-16.82-3.43-25.41-4-2.26-.17-3.44.48-4.22,2.58a22.12,22.12,0,0,0-.66,14.73,4.51,4.51,0,0,0,3.91,3.42c9.62,1.72,19.12,4.1,29.18,4.87-.22-1.54-.51-3.07-.64-4.61a34.44,34.44,0,0,1,2.84-16.51h0l-1.31-.26-1.14-.23.12.16C34.52,165.17,33.68,164.75,32.84,164.63Z"/><path d="M290.93,187.67a36.4,36.4,0,0,0,.6-15.27,34.73,34.73,0,0,0-3.19-9.46c-5.39-10.69-16-18.45-27.77-19.47-17.18-1.49-31.75,7.44-37.59,23.24a33.47,33.47,0,0,0,.61,25.6c.37.86.76,1.71,1.19,2.55,4.66,9.08,12.16,14.89,21.58,18.43l19.93.3C281,208.19,288.32,197.9,290.93,187.67Zm-33.64,14.52a23.47,23.47,0,1,1,.11-46.91,21.94,21.94,0,0,1,12.81,4.56c-2.48.93-4.17-.19-6.52-.66,2.09,1.67,4,2.23,5.75,1.57,1.51-.57,2.17.06,3,.84a23.45,23.45,0,0,1-15.19,40.6Z"/><path d="M219.93,193.28a388.92,388.92,0,0,1-47.9,1.95c-21.95-.42-43.87-1.14-65.74-3.14-2-.19-2.38-.72-1.75-2.65A36.29,36.29,0,0,0,106,174.59c-1.71-17.07-17.68-33.46-39.74-31.16-12.1,1.26-22.63,9.53-27.85,20.44-.19.39-.38.79-.55,1.19A34.44,34.44,0,0,0,35,181.57c.13,1.54.42,3.07.64,4.61-10.06-.77-19.56-3.15-29.18-4.87a4.51,4.51,0,0,1-3.91-3.42,22.12,22.12,0,0,1,.66-14.73c.78-2.1,2-2.75,4.22-2.58,8.59.62,16.92,2.83,25.41,4,.84.12,1.68.54,2.67.09l-.12-.16a2.51,2.51,0,0,0-1.77-.88c-8.11-1.43-16.15-3.34-24.34-4.28-1.71-.19-2-.69-1.56-2.18,4-15,8.58-29.75,17.24-42.84C33.13,102,44,93.17,57.83,88.21l1.09-.36c.63-.22,1.25-.44,1.89-.63a10.11,10.11,0,0,0,5.71-4,11.51,11.51,0,0,0,1.24-2.4C72.71,68,78.59,55.65,86.37,44.32c22.1-32.2,53.1-46,91.56-42.43,20.65,1.93,38.41,11.51,54,25,16.61,14.25,27.29,32.59,35.78,52.4,1.25,2.92,1.24,2.94-1.9,2.94q-50.66,0-101.32,0c-25.6,0-51.21-.08-76.82-.06-2,0-3.07-.48-3.74-2.48a26.45,26.45,0,0,0-4.73-8.4A2.56,2.56,0,0,1,79,67.91c1.25-2.18,2.45-4.39,3.65-6.59.75-1.38,1.5-2.75,2.27-4.12C94.62,40,107.46,26,125.13,16.67c10.44-5.52,21.19-9.56,33.09-10.18,13-.67,25.56,1.51,37.94,5.27a83.26,83.26,0,0,1,33.89,19.79l.31.28a6.9,6.9,0,0,1,.88,1.05,5.34,5.34,0,0,1,.89,3.19Q232,56,232,75.88c0,1.28-.2,2-.88,2.29a3.64,3.64,0,0,1-1.64.25c-9.93-.06-19.87-.07-29.81-.08l-15.11,0c-2.63,0-5.27-.11-7.91-.07-1.49,0-1.87-.5-1.62-2a37,37,0,0,0,.64-7.87c-.14-3.14-1.59-4.47-4.73-4.2-1.17.1-2.32.38-3.87.64,8.71-6.52,14-14.5,13.31-25.48s-6.64-18.48-16.43-24l12.45-.72c-6.36-1.39-12.92,1-19.62-1.75,5.34-1.13,10.43-.22,15.31-1.41a7.26,7.26,0,0,0-2-.25c-7.54-.65-14.9,1-22.22,2.23-5.14.88-10.34,2.43-14.52,5.87-8.7,7.17-12.29,20.36-9.2,31.1,2.62,9.12,10,13.55,18.21,16.85,2.15.86,5.58.07,6.35,2.13s-.68,4.76-1,7.2c-.17,1.35-.8,1.65-2,1.64q-14.92,0-29.86,0c-1.47,0-1.85-.55-1.92-1.91-.09-1.92-.65-4.07-2.52-4.7-2.34-.8-2.66-2.52-3.16-4.38a35.09,35.09,0,0,0-1.14-3.65c-.56-1.44-1.5-2.66-3.25-2.12s-2.32,1.83-1.93,3.62c.54,2.41.93,4.85,1.53,7.24.45,1.81-.5,3.49-.28,5.29.1.83-.83.74-1.36.69-1.48-.16-3,.62-4.24-1.33A63,63,0,0,0,87.21,63.82c-1-1-2.07-2.13-3.76-2.07a2.48,2.48,0,0,0-.47,0c4.51,3.5,12,12.5,13.64,16.37-3.23.32-6.5-.1-9.67.89a26.09,26.09,0,0,0,5.56.41c15.31,0,30.62.09,45.93.08q45.81,0,91.62-.12c2.21,0,3-.53,3-3,0-13.61.17-27.22.37-40.83a4.37,4.37,0,0,0-1.39-3.52c-12.31-12.55-27.44-19.87-44.31-23.88-10.71-2.56-21.64-4.31-32.63-2.89C134,8.06,116.5,18.28,101.41,32.9c-10,9.66-16.64,21.65-23.11,33.74a11.88,11.88,0,0,1-2,3.22,14.25,14.25,0,0,0-4.19,13.61A14.91,14.91,0,0,0,74.65,89c1.69,2.27,6.86,3.82,9.39,2.81a2.83,2.83,0,0,0,1.85-2.53,9.11,9.11,0,0,0-.06-3.3c-.52-1.65-.17-2.28.69-2.52a7.72,7.72,0,0,1,1.79-.14c15.14.06,30.29,0,45.43,0h.41q71.5,0,143,.05A29.48,29.48,0,0,1,290,86.3c5.05,2.42,9.67,5.42,11.32,11.35.59,2.13.52,3.08-2.21,3.19-5,.21-6.15,2.15-4.93,7q1.53,6.14,2.65,12.34l.09.49q1.13,6.21,1.86,12.49c.88,7.52.78,7.57,8.37,7.46,1.54,0,2.24.29,2.45,2,.68,5.56,1.5,11.12,2.41,16.65.18,1.05.08,1.68-.35,2a2.55,2.55,0,0,1-1.71.28l-.79-.05a130,130,0,0,0-14.76.43,8.64,8.64,0,0,0-4.43.89,7.87,7.87,0,0,0-.83.58c3,.38,5.51-.14,8-.27a119.54,119.54,0,0,1,19.11.14c2.23.23,3.51,1.11,3.72,3.6a82.33,82.33,0,0,1,.27,9.42,19,19,0,0,1-2.23,8.82,3.64,3.64,0,0,1-2.72,2,65.4,65.4,0,0,1-20.56.87,5.89,5.89,0,0,0-2.86,0l-.13,0c1.66,1.22,1.66,1.23,3.54,1.4a83.9,83.9,0,0,0,19.06-.66c3.62-.48,5-2.35,5.93-5.21,1.78-5.3,1.45-10.75.88-16.17-.4-3.79-1.1-4.61-5-5.21-2.26-.35-2.87-1.34-3.12-3.42-2.46-20.7-6.38-41.15-10.78-61.52a11.81,11.81,0,0,0-2.95-5.54,28.19,28.19,0,0,0-12.8-8,39,39,0,0,0-13.61-1.48A3.43,3.43,0,0,1,269.72,81a6.17,6.17,0,0,1-.82-1.41c-.37-.85-.74-1.7-1.12-2.54-6.53-14.74-13.94-28.95-25.16-40.86C219.18,11.3,191.33-3,156.21.52,129,3.22,106.8,15.32,89.89,36.79,79,50.61,71.7,66.44,65.29,82.69a4.13,4.13,0,0,1-3.14,2.84A61.63,61.63,0,0,0,37.76,97.84c-18.53,15.49-25.82,36.95-31.27,59.34-.34,1.42,0,2.52-2.08,2-1.08-.25-1.47,1-1.9,1.77-3.26,6-3.21,12.16-.62,18.41a4.57,4.57,0,0,0,3.45,3,208.59,208.59,0,0,0,28.41,4.7c1.66.17,2.42.61,3,2.32a35.11,35.11,0,0,0,12.85,17.94,49.48,49.48,0,0,0,11.18,6l19.8-.05a37.4,37.4,0,0,0,22.21-19.2c.56-1.11,1.36-1.05,2.34-.93,2.44.32,4.89.64,7.35.86,14.23,1.29,28.52,1.86,42.8,2.26,20.49.57,41,.9,61.43-1.35l7.25-.81a3.49,3.49,0,0,0-1.4-.85A6.06,6.06,0,0,0,219.93,193.28ZM174.11,76.44c0,1.41-.31,1.76-1.67,1.71-1.95-.06-4.32.14-6.27.14h-4.42l-2,0h-.29c-.48,0-.87-.13-1-.59a2,2,0,0,1,0-.57V77C159,71.6,165,65.66,170.38,65.29c3-.2,4,.65,4,3.6C174.42,71.44,174.18,73.89,174.11,76.44Zm-45.6-20.65c9.8-2,16.76-7.12,21.46-15.57-.86-.38-1,.08-1.21.37s-.4.75-.63,1.11a28.47,28.47,0,0,1-17.58,12.59c-2.16.52-3.22-.2-4.11-2.15-4.57-9.9-.78-25.73,7.84-32.35a13.92,13.92,0,0,1,6.66-3c3.75-.48,6.89-2.85,11-2.55,11.11.8,19.27,6,24.19,15.79s3.76,19.1-2.92,27.74a23.42,23.42,0,0,1-14.78,8.82C146.65,68.73,136.9,64.83,128.51,55.79Zm20.3,21c.34-2.18.72-4.36,1-6.54.16-1.2.89-1.53,1.94-1.52a32.4,32.4,0,0,0,13.82-3,18,18,0,0,0-8,11.33c-.13.55-.24,1.21-1.06,1.21-2.3,0-4.59,0-6.88,0C148.63,78.23,148.7,77.5,148.81,76.79Zm-40-5.13c5.54.18,4.31,6.62,4.31,6.62l-8.16.2C101,72.59,108.79,71.66,108.79,71.66ZM84.69,86.58c.51,3.51-1,4.89-4.48,4.15-5-1.09-7.33-4.39-7.24-11.17a11.57,11.57,0,0,1,3.27-8.09c.83-.88,1.32-1.07,2.1,0A35.2,35.2,0,0,1,84.69,86.58Zm222.9,52.52c-.93.06-1.86.16-2.18.18-4.77,0-4.7,0-5.21-4.14a210.3,210.3,0,0,0-5.15-28c-.38-1.4-1-2.83.62-3.88a7.9,7.9,0,0,1,6.13-.89c.64.13.57,1,.68,1.54,2.1,11.19,4.17,22.38,6.3,33.56C309,138.53,308.68,139,307.59,139.1ZM91.75,189a23.43,23.43,0,0,1-44.07-5.56c-1.79-9.78,1.27-17.91,9.36-23.7,7.8-5.57,16.22-6,24.79-1.61.77.39,1.76.64,2.09,1.81-1.91.87-3.59-.21-5.53-.69,1.64,1.43,3.46,2.24,5,1.55,1.8-.79,2.63.2,3.64,1.17A23.51,23.51,0,0,1,91.75,189Z"/><path d="M166.15,78.29h0C166.43,78.16,166.43,78.16,166.15,78.29Z"/><path d="M44.12,116.19c0-4-2.58-5.73-6.25-4.33A13.92,13.92,0,0,0,34,114.28a45.93,45.93,0,0,0-14.76,22.13,18.8,18.8,0,0,0-.67,5.28,5,5,0,0,0,2.83,4.76,5.08,5.08,0,0,0,5.54-.31,26.28,26.28,0,0,0,5.27-4.77,75.47,75.47,0,0,0,10.45-16.82c1-2.1,1.85-4.18,1.46-6.15C44.12,117.38,44.13,116.79,44.12,116.19Zm-1.22,2a15.32,15.32,0,0,1-2,6.54c-3.09,6.55-6.76,12.77-12,17.88a17,17,0,0,1-3.4,2.65c-2.66,1.51-5.13.38-5.69-2.24a4.85,4.85,0,0,1-.09-.55v0a1.36,1.36,0,0,1,0-.2c0-.18,0-.37,0-.56a11.73,11.73,0,0,1,.33-2.27c1.46-6.69,4.77-12.46,9.07-17.75a63.46,63.46,0,0,0-6.59,16.84c1.77-3.56,3.57-7.11,5.3-10.7a68.92,68.92,0,0,1,8.64-13.19A5.25,5.25,0,0,1,41,112.72c1.35,0,1.61,1.06,1.87,2,.32,1.18-.68,1.11-1.35,1.37a11.78,11.78,0,0,0-3.71,2.65c-7,6.6-10.62,15.16-13.76,24,.9-1.54,1.84-3.06,2.69-4.63,2.73-5,5.21-10.13,8.74-14.64a33.67,33.67,0,0,1,6-6.23c.31-.24.79-.55,1.09-.47C43.19,117,42.9,117.67,42.9,118.14Z"/><path d="M241.27,80.16a193.76,193.76,0,0,0,20.87-.5c1.37-.11,1.81-.4,1.18-1.83-5.17-11.75-10.79-23.25-19.08-33.2a24.84,24.84,0,0,0-5.45-5.37,12.57,12.57,0,0,0-.22,1.4c0,12.4,0,24.79-.08,37.19C238.48,80,239.75,80.12,241.27,80.16Zm20.34-3.66c.7,1.44.44,2-1.15,2.06q-9.69.48-19.38.45c-1.06,0-1.52-.34-1.52-1.46q.06-17.85.07-35.7c0-.05.11-.11.5-.45,5.16,6.12,10.18,12.22,13.85,19.27C256.68,65.86,259,71.24,261.61,76.5Z"/><path d="M201.32,187.77c-29.94-.27-59.88-.92-89.8-2.39C141.42,187.48,171.34,188.65,201.32,187.77Z"/><path d="M234.58,86.09c-2,18.4,1,36.45,2.38,55.07C237.43,140.24,234.89,86.8,234.58,86.09Z"/><path d="M284.6,211.81c21.29-1.16,42.22-5.33,63.32-7.88C326.62,205.19,305.74,209.51,284.6,211.81Z"/><path d="M207.13,100.35c4.06-.23,8.13-.12,12.17-.61s4-.44,3.84-4.56c-.1-2.34-1.07-3.37-3.45-3.23-2.11.12-4.24,0-6.35,0-.93,0-1.87,0-2.8,0-6.15.11-6.07.1-5.79,6.1C204.84,99.85,205.4,100.45,207.13,100.35Zm1-7.15c2,0,4.08,0,6.12,0V93h4.33c3.17,0,4.35,1.73,3.23,4.68-.29.73-.82.77-1.41.79-4.07.19-8.15.34-12.22.55-3.28.17-2.07-2.36-2.4-3.93C205.34,93.06,206.9,93.23,208.13,93.2Z"/><path d="M231.6,143.73c-11.14,2-21.13,27.27-16.37,39.57C214.8,168,217.59,153.88,231.6,143.73Z"/><path d="M146.75,202.29c-18.86,2.6-37.49,6.7-56.46,8.63C94.78,211.92,137.84,205.29,146.75,202.29Z"/><path d="M73.85,133.13c.76-12.49,3.21-24.9,1.65-37.48C75.73,108.17,73.12,120.58,73.85,133.13Z"/><path d="M277.09,210a331.27,331.27,0,0,0,46.65-8.72C308.2,204.26,292.69,207.32,277.09,210Z"/><path d="M328.48,185.09c2.06-6.67,1.9-18.58,0-19.62C329.49,171.84,328.69,178.31,328.48,185.09Z"/><path d="M97.38,208.67c2.42.48,12.5-1.95,16.16-4.08Z"/><path d="M336.84,165.28a56,56,0,0,1-.15,16.07C338.47,176.2,338.62,168.08,336.84,165.28Z"/><path d="M135.35,27.08a2.17,2.17,0,0,0-2.44.91,7.67,7.67,0,0,0-1.62,4.7c0,1.36-.15,2.93,1.43,3.46s2.37-.85,3.18-1.94A6.89,6.89,0,0,0,137,29.14,2.2,2.2,0,0,0,135.35,27.08Z"/><path d="M137.72,23.39a2.4,2.4,0,0,0-3.3.59c2.85-.52,4,1.34,5.61,3.64C139.89,25.28,139.21,24.07,137.72,23.39Z"/><path d="M71.31,173.07c-2.58,0-4.45,2.23-4.43,5.4s2.35,5.77,5.15,5.76a5.1,5.1,0,0,0,5.29-5C77.34,176.41,74.13,173.12,71.31,173.07Zm.49,10.22a4.36,4.36,0,0,1-4.17-4.54c0-2.38,1.87-4.77,3.72-4.79,2.33,0,5.33,2.83,5.28,5A4.9,4.9,0,0,1,71.8,183.29Z"/><path d="M81.34,181a2.14,2.14,0,0,0-2.26,1.83c0,1.35,1.09,2,2.45,2.06,1.09,0,1.81-.39,1.81-1.64C83.19,182.07,82.58,181,81.34,181Z"/><path d="M76.48,167.94a1.21,1.21,0,0,0-1.34,1.43,2.2,2.2,0,0,0,2,2.25c1.08,0,1.69-.44,1.51-1.38C78.44,169.07,78,168,76.48,167.94Z"/><path d="M61.6,179.14c-.55.38-1.74.23-1.59,1.46a2.21,2.21,0,0,0,2.18,2.1c.86.07,1.61-.35,1.55-1.27A2.3,2.3,0,0,0,61.6,179.14Z"/><path d="M81,174.83,89.77,169C86.83,169.44,82.23,172.6,81,174.83Z"/><path d="M92.65,177c-2.08,2.9-2.17,6.12-1.55,9.44C91.5,183.33,91.28,180.09,92.65,177Z"/><path d="M60.73,158.6c-1.6,2.22-3.78,3.86-5.72,5.75C57.75,163.27,60,161.66,60.73,158.6Z"/><path d="M67.66,171.21c.1-1-.14-1.94-1.35-2.17-.43.63-.06.89.24,1.18s.36.81-.1,1a3.44,3.44,0,0,1-1.46.22c-.52,0-.77-.38-.48-.86s.77-.9-.25-.86c-.74,0-1,.54-.83,1.24a2.11,2.11,0,0,0,2.35,1.5C66.66,172.45,67.55,172.3,67.66,171.21Z"/><path d="M66.78,199.49h7.63C71.85,198.53,69.29,198.15,66.78,199.49Z"/><path d="M50.61,186.87c1-3.28,1.12-6.47-1-9.36C50.93,180.56,50.66,183.73,50.61,186.87Z"/><path d="M69.85,158.92a11.26,11.26,0,0,0,0,7.86Z"/><path d="M58.57,193.25a23.12,23.12,0,0,0,4.49-6.66A18.21,18.21,0,0,0,58.57,193.25Z"/><path d="M52.63,171l7.51,2.58A12.18,12.18,0,0,0,52.63,171Z"/><path d="M257.07,173.13c-2.48,0-4.42,2.22-4.47,5.15,0,3.18,2.46,6,5.33,5.95a5.08,5.08,0,0,0,5.21-4.81A6.62,6.62,0,0,0,257.07,173.13Zm1,10.16a4.46,4.46,0,0,1-4.63-4.37c-.11-2.25,1.73-4.78,3.58-4.92,2.33-.18,5.31,2.48,5.39,4.8A4.75,4.75,0,0,1,258.06,183.29Z"/><path d="M267.16,181a2.11,2.11,0,0,0-2.24,1.85c0,1.34,1.16,2,2.48,2.08,1.1,0,1.82-.46,1.75-1.66A2.14,2.14,0,0,0,267.16,181Z"/><path d="M247.63,179.16c-.81.25-1.88.29-1.78,1.43A2.17,2.17,0,0,0,248,182.7c.85.07,1.63-.31,1.57-1.23A2.28,2.28,0,0,0,247.63,179.16Z"/><path d="M262.41,168a1.2,1.2,0,0,0-1.45,1.32,2.22,2.22,0,0,0,1.92,2.33c1.07,0,1.76-.28,1.63-1.25C264.35,169.14,263.85,168.06,262.41,168Z"/><path d="M266.82,173.86c.14.22.29.43.44.64l8.39-5.52c-.15-.21-.29-.42-.44-.62A67.67,67.67,0,0,0,266.82,173.86Z"/><path d="M277,186.63c.19-3.26.29-6.54,1.52-9.67C276.37,179.94,276.32,183.24,277,186.63Z"/><path d="M253.55,171.23A1.83,1.83,0,0,0,252,169c0,.38-.08.64,0,.81.2.4.92.6.47,1.23a1.45,1.45,0,0,1-1.38.44c-.76,0-1-.33-.64-1.15.29-.59-.2-.68-.67-.54-.62.2-.69.7-.52,1.22a2.13,2.13,0,0,0,2.37,1.45C252.54,172.45,253.47,172.26,253.55,171.23Z"/><path d="M246.58,158.59c-1.54,2.27-3.84,3.81-5.69,5.78C243.55,163.18,245.82,161.62,246.58,158.59Z"/><path d="M252,199.92c3-.72,5.72-.27,8.69-.36C258.21,198.09,253.92,198.25,252,199.92Z"/><path d="M255.21,158.92a19,19,0,0,0,.46,8.15A24.53,24.53,0,0,0,255.21,158.92Z"/><path d="M236.07,187.41c1.76-3.31,1.31-7.83-1.17-10.38C236.79,180.54,236.43,183.74,236.07,187.41Z"/><path d="M244.35,193.27a21.46,21.46,0,0,0,4.52-6.66A18.13,18.13,0,0,0,244.35,193.27Z"/><path d="M238.45,171l7.5,2.57A11.77,11.77,0,0,0,238.45,171Z"/><path d="M30.32,134.93a7.84,7.84,0,0,0,5.83-9.5C34.89,129.2,33.43,132.56,30.32,134.93Z"/><path class="cls-5" d="M113.1,78.28s1.23-6.44-4.31-6.62c0,0-7.75.93-3.85,6.82Z"/></g></g></svg>