<svg xmlns="http://www.w3.org/2000/svg" viewBox="0 0 328 393"><defs><style>.cls-1{fill:none;}.cls-2{fill:#020202;}.cls-3{fill:#121212;}.cls-4{fill:#0f0f10;}.cls-5{fill:#1b1c1c;}.cls-6{fill:#1a1a1a;}.cls-7{fill:#050505;}.cls-8{fill:#181818;}.cls-9{fill:#343434;}.cls-10{fill:#252525;}.cls-11{fill:#232323;}.cls-12{fill:#3b3b3b;}.cls-13{fill:#282827;}.cls-14{fill:#414141;}.cls-15{fill:#6d6d6d;}.cls-16{fill:#636464;}.cls-17{fill:#676767;}.cls-18{fill:#272727;}.cls-19{fill:#626363;}.cls-20{fill:#464646;}.cls-21{fill:#30302f;}.cls-22{fill:#3c3c3c;}.cls-23{fill:#030303;}.cls-24{fill:#898989;}.cls-25{fill:#5d5d5d;}.cls-26{fill:#8b8b8b;}.cls-27{fill:#fff;}.cls-28{fill:#f6f7f7;}.cls-29{fill:#313131;}.cls-30{fill:#5a5b5b;}.cls-31{fill:#292929;}.cls-32{fill:#f4f5f5;}.cls-33{fill:#dededd;}.cls-34{fill:#3f4040;}.cls-35{fill:#f2f2f2;}.cls-36{fill:#ebebeb;}.cls-37{fill:#f5f5f5;}.cls-38{fill:#fafbfb;}.cls-39{fill:#1d1d1d;}.cls-40{fill:#efeeee;}.cls-41{fill:#f0efef;}.cls-42{fill:#f7f8f9;}.cls-43{fill:#d5d5d5;}.cls-44{fill:#767576;}.cls-45{fill:#8f8f8f;}.cls-46{fill:#959595;}.cls-47{fill:#afafb0;}.cls-48{fill:#737374;}.cls-49{fill:#070808;}.cls-50{fill:#444445;}.cls-51{fill:#4d4e4e;}.cls-52{fill:#0c0d0d;}.cls-53{fill:#2a2a2a;}.cls-54{fill:#3e3e3d;}.cls-55{fill:#d5d4d4;}.cls-56{fill:#dbdbdb;}.cls-57{fill:#e4e4e4;}.cls-58{fill:#f3f3f3;}.cls-59{fill:#cdcccc;}.cls-60{fill:#131313;}.cls-61{fill:#545554;}.cls-62{fill:#6f6f6f;}.cls-63{fill:#8d8d8d;}.cls-64{fill:#cdcdcd;}.cls-65{fill:#8e8e8e;}.cls-66{fill:#515252;}.cls-67{fill:#4e4e4f;}.cls-68{fill:#a9aaaa;}.cls-69{fill:#90908f;}.cls-70{fill:#9e9e9e;}.cls-71{fill:#b8b7b8;}.cls-72{fill:#a3a3a3;}.cls-73{fill:#20201f;}.cls-74{fill:#212120;}.cls-75{fill:#101010;}.cls-76{fill:#49bc9e;}.cls-77{fill:#00b09c;}</style></defs><g id="Layer_2" data-name="Layer 2"><g id="Chapter_2" data-name="Chapter 2"><rect class="cls-1" width="328" height="393"/><path class="cls-2" d="M128.74,278.05a15.28,15.28,0,0,0,.87-7.16c-.65-10.84-1.84-21.64-1.66-32.52,1.49-2.7,3.89-3.27,6.81-3.26,17.74.07,35.48,0,53.22,0,1.55,0,3.24.39,4.42-1.11a38,38,0,0,0,1.32-10.86c0-10.5.15-21,0-31.51-.11-5.85-.92-11.69-.71-17.56.1-2.72-1.37-3.67-3.87-3.6-8.06.22-16.1-.4-24.14-.73-6.3-.26-7.73-2.23-5.64-8.32,2.18-.49,1.9,1.39,2.05,2.43.31,2.17,1.52,2.82,3.49,2.82,8,0,16.09,0,24.14,0,1.47,0,3.06,0,3.11-2.15s-1.18-2.77-3-2.85a45.76,45.76,0,0,0-8,.29c-5.46.71-11,.39-16.43.27-1.62,0-3.6-.08-3.63-2.58,1.45-1.25,3.22-1,4.91-1,7.69,0,15.38,0,23.07,0-18.44,0-36.88,0-55.32.37,3.12.37,6.26.29,9.4.35,1.81,0,3.7-.26,5.34.86.27,2.44-1.75,1.87-2.9,2-3.14.29-6.3.09-9.45.12a12.33,12.33,0,0,0-3.26.27c-1,.3-1.76.94-1.63,2.07s1.14,1.18,1.95,1.23c3.27.21,6.55,0,9.82.11,1.67,0,3.43-.24,4.88,1-.6,3-3.19,2.46-5.15,2.61-4.45.36-8.95-.27-13.38.68-1.82-1.68-.71-3.71-.67-5.61.35-14.33,2.14-28.54,3.88-42.73A607.44,607.44,0,0,1,143.78,58.4a138.91,138.91,0,0,1,17.61-41.71c1.22.09,1.27,1.29,1.72,2,11.49,18.37,16.72,38.89,20.73,59.88A686.3,686.3,0,0,1,196.13,222c-.33,15.91-1.11,31.8-2.45,47.66-.21,2.56-.43,5.12.5,7.6.13.88-1.66,1.32-.55,2.43,0,8.71-1.4,17.29-2.38,25.9q-1.09,9.64-2.43,19.28a11,11,0,0,0,.32,5.09,15.53,15.53,0,0,1,.31,7.21c-.69,5.2,2,9.68,3.9,14.25.53,1.26,2.05,1.2,3.26,1.21,8.08.07,16.15,0,24.22,0,1.38,0,2.72-.11,3.43-1.58.31-.52.64-1,1.36-1l1.79,4.14c-2.36,2.33-1.39,4.48.36,6.58.77,2,1.11,4.32,3.06,5.73a11.14,11.14,0,0,1,2.15.47c.52,1.18,1.17,2.3-1.1,2.28-9.3-.06-18.61-.05-27.91,0a3,3,0,0,1-2.52-1.21c-2.87-3.49-6.19-6.71-8.55-10.52-3.68-5.94-4.59-13-6.63-19.6-.26-.84.58-2.07,1-3.07.82-1.88.44-3.31-1.59-4.41a13.67,13.67,0,0,0-1,3c-.46,6-4.28,7.7-9.52,7.75-.36,0-.73.06-1.09.09-3.16.26-7.48-.65-9.19,1.06-2.14,2.14-.6,6.48-.68,9.87-.11,4.9-.11,9.8,0,14.69.06,2-.66,2.52-2.52,2.48s-2.93-.2-2.88-2.55c.14-7.47,0-14.94.09-22.41,0-2-.47-2.67-2.59-2.73a86.81,86.81,0,0,1-13.14-1.24c-1.89-.34-3-.92-3.38-2.87a33.61,33.61,0,0,0-1.48-4.52c-.3-.85,0-2.44-1.21-2.28s-2.2,1.91-1.63,2.85c3.07,5.11-.16,9.47-1.5,14-1.16,3.88-1.26,8.29-4.69,11.26-.61.15-1-.22-1.26-.63-3.34-2.61-4.75-2.49-7.66.58-1.26,1.33-2.54,2.17-3.35-.41-.21-1.73-1.29-2-2.57-1.29-2.1,1.11-4.46,2-5.51,4.39-.76,1.3-1.52,2.6-2.4,3.82-.11.49-1.48,1.1.06,1.41,1.08.23,2.13-.34,3.22-.4,3.38,1,5.87.13,7.51-3.22.74-1.51,2.34-2.47,3.43-3.79,1.54-1.86,2.61-1.47,3.23.75-.4,2.27-2.63,3.29-3.36,5.08,1.13-.49,1-2.63,2.74-2.78-.11,1.18,1.53.63,1.6,1.62-2.29,4.4-5.87,5.63-10.76,5.36-7.41-.41-14.86-.13-22.29-.05-2,0-2.69-.27-1.71-2.41,2.44-5.3,4.69-10.68,7-16,.68-.07,1,.41,1.41.85,1.05,1.15,2.45,1,3.78,1,7.83,0,15.66-.06,23.48,0,2.88,0,4.59-1,5.4-3.8,1.38-4.77,3.81-9.38,1.92-14.59a1.18,1.18,0,0,1,0-.72c2.92-9.21-.3-18.17-1.24-27.19s-1.66-18-2.94-26.95C128.81,279.05,128.41,278.63,128.74,278.05Z"/><path class="cls-3" d="M150.24,22c-19.18,53.22-31.95,107.55-31.12,164.47C113.57,153.18,132.19,54.26,150.24,22Z"/><path class="cls-4" d="M200.13,122.94c-4.38-38.11-11.51-75.64-22.68-111.46,6.35,6.74,22.18,78.71,23.46,109.18C200.91,121.51,201.88,122.69,200.13,122.94Z"/><path class="cls-5" d="M128.64,164.65c.64,1.73-.53,3.72.73,5.37,1.3,1.08,1.33,2.6,1.19,4-1.3,14.14-.32,28.32-.6,42.48-.09,4.15,0,8.31,0,12.46,0,5.09.16,5.23,5.45,5.24q26.39,0,52.78,0c2,0,4.19-.35,6,1.14-1.16,1.39-2.74.78-4.13.78-17.15.06-34.3,0-51.44.08-3.67,0-7.51-.71-10.63,2.1-.89-3.84-.58-7.75-.68-11.64-.54-19.76-.32-39.51.84-59.25A23.09,23.09,0,0,1,128.64,164.65Z"/><path class="cls-6" d="M225.62,350.13l-.68.88c-2.32-.62-2.51-2.81-3.23-4.53C212.18,323.94,202.9,301.3,192.8,279c-.68-1.49,1-1.07,1.38-1.71,7.58,15.17,13.76,31,20.45,46.52C218.39,332.55,222,341.36,225.62,350.13Z"/><path class="cls-7" d="M216.82,209.52v-72.9h1.32q.24,45.7-.58,91.43c-.83,0-1-.54-.95-1.18C216.71,221.08,216.31,215.29,216.82,209.52Z"/><path class="cls-8" d="M128.74,278.05l.67.75a6.85,6.85,0,0,1-.78,4.56c-9.83,21.26-18.47,43-27.69,64.55-.64,1.51-.91,3.39-2.94,3.87l-.7-.9c10.07-24.08,20-48.2,30.8-72A4.37,4.37,0,0,1,128.74,278.05Z"/><path class="cls-9" d="M216.82,209.52c.6,4.87.05,9.76.21,14.64,0,1.3-.44,2.7.53,3.89.07,13.71-1.06,27.39-1.48,41.08-1.7-.61-.85-1.82-.68-2.88q.56-27.47,1.13-54.95A13.75,13.75,0,0,1,216.82,209.52Z"/><path class="cls-10" d="M105.84,246.86c-.09-12.71,1.33-25.38,1.29-38.1,1.47,15-.06,30-.55,45C104.49,251.67,106,249.18,105.84,246.86Z"/><path class="cls-11" d="M226.73,296.31c2.53,10.3,1.84,20.88,2.5,31.34C226.43,317.37,227.56,306.75,226.73,296.31Z"/><path class="cls-2" d="M227.23,361.12c-3.24-3.26-3.21-4.4.18-6.85A69.08,69.08,0,0,1,233,367.05l-2,.71C229,366,228.37,363.39,227.23,361.12Z"/><path class="cls-12" d="M90.15,374.51c8.46.1,16.95-.4,25.38.94H90.19Z"/><path class="cls-13" d="M97.57,303.32c-.09,9.95-1.91,19.72-3.9,29.48l2.88-29.57Z"/><path class="cls-14" d="M105.84,246.86c.65,2.26-.49,4.72.74,6.91V276h-1.4C105.33,266.29,104.71,256.57,105.84,246.86Z"/><path class="cls-15" d="M90.67,381.79h15.27v.95a83.43,83.43,0,0,1-15.32.29Z"/><path class="cls-16" d="M200.13,122.94c.91-.54.36-1.58.78-2.28,1.31,6.48,1.22,13.06,1.83,19.59l-.94.1Z"/><path class="cls-17" d="M156.39,351.69c-1.68,5.92-3,11.86-1.43,18C152.35,363.47,153.14,357.49,156.39,351.69Z"/><path class="cls-18" d="M208.94,382c5.06-.36,10.15-.66,16.21.86A86.41,86.41,0,0,1,208.94,382Z"/><path class="cls-19" d="M149.37,361.27c-.19-5.16.25-10.14,4.34-14.08-3.18,4.18-2.15,9.59-4.39,14.05Z"/><path class="cls-20" d="M126.24,8.76c3.39,1.65,2.41,3.37,1.11,4.93-1,1.16-2.46,2.15-3.67.57-1.6-2.09.19-3.6,1.44-6.19.44,2.53-1.58,3.8-.28,5.23.19.22,1,.16,1.32-.06C127.75,12.16,127.26,10.64,126.24,8.76Z"/><path class="cls-21" d="M128.67,358.14l.69.73A18.23,18.23,0,0,1,125,364c-.36-.58-1.69-.13-1.45-1.36-.06-.84.39-1.59.41-2.42C124.77,357.76,126.93,358.42,128.67,358.14Z"/><path class="cls-22" d="M99.71,83c2.77,1.68,3.41,3.14,2,5-1,1.28-2.43,2.46-4,1.36-2.08-1.41-.94-3.05.21-5.08.92,1.55-.93,3.27.9,4a1.54,1.54,0,0,0,1.64-.51C101.84,86.4,100.79,85.15,99.71,83Z"/><path class="cls-23" d="M216.09,376h-12v-.74h16.39C219.34,377.16,217.6,375.88,216.09,376Z"/><path class="cls-24" d="M170.86,354.34a12,12,0,0,1-.84,9.3v-7C170.65,356,169.79,354.82,170.86,354.34Z"/><path class="cls-25" d="M216.09,376c1.41-.69,3.11.38,4.45-.74,2.35-.42,4.49.68,6.76,1C223.55,376.55,219.8,377,216.09,376Z"/><path class="cls-26" d="M215.4,266.25c.22,1,.45,1.92.68,2.88.2,1.74.45,3.48-1,5.05C214.77,271.53,214.47,268.89,215.4,266.25Z"/><path class="cls-27" d="M194.15,235.41c-20.68.06-41.36.05-62,.25-3.3,0-3.37-1.51-3.41-4-.27-20.55-.36-41.1.67-61.64.12-2.11,1.72-1.63,3-1.65,4-.07,8.09,0,12.12-.17,1.45-.06,3.34.41,3.94-1.75-.08-2,.41-4,.11-5.95-5,0-10,0-15-.16-1.08,0-3.1,1-3.16-1.08-.07-2.43,2.15-1.42,3.37-1.44,9-.11,18.11-.1,27.16-.11,9.67,0,19.34,0,29,0,1.07,0,2.95-.75,3,1,.07,2-1.87.92-2.81.93-9.66.09-19.33.05-29,0a2.44,2.44,0,0,1-1.41,1.52c-.14,7.63-.14,7.63,7.41,7.66,7.81,0,15.63.15,23.44,0,2.41,0,3.46.54,3.56,3.15C194.85,193.2,195.41,214.3,194.15,235.41Z"/><path class="cls-27" d="M158.69,330.15c-6.36,0-12.69-.48-19-1-1.69-.15-2.54-.7-2.74-2.59-1.72-16.52-4.11-33-5.38-49.53-.21-2.64.18-3.57,3.1-3.45,5.86.26,11.73,0,17.6.09a5.23,5.23,0,0,0,3.29-1l-.1.1c1.47-.78.74-2.17.78-3.25.12-4.38-.12-8.79.17-13.16.23-3.43-1.08-4.25-4.31-4.13-6.33.22-12.67-.12-19,.09-2.73.09-3.89-.66-3.49-3.41a10.3,10.3,0,0,1,6.63-.76,21,21,0,0,0,8.29-.05c1.24-.24,2.39-.38,3.42.52l3.59,0c5.67.13,11.28-.71,17-.48a162.08,162.08,0,0,0,23.21-.24c3.29-.35,1.77,2.23,1.79,3.79-1.46,24.91-4,49.71-7.23,74.46-.32,2.48-1.35,3-3.34,3.16-5.25.29-10.51.45-15.75.89-2.39.2-3-.79-2.94-2.89,0-4.4-.33-8.83,0-13.21.26-3.76-.86-5.2-4.6-4.17a46.33,46.33,0,0,0,0,13C159.91,325.35,160.7,327.94,158.69,330.15Z"/><path class="cls-27" d="M181.77,76.65c2.79,11.28,4.34,22.77,6.07,34.22,2.16,14.28,3.6,28.63,4.88,43,.22,2.4-.4,3-2.83,3-18.85-.13-37.7-.12-56.55-.13-1.79,0-3.14.27-2.89-2.58a713.14,713.14,0,0,1,13-88.46c1.13-5.23,1.07-5.24,6.37-5.25,8.69,0,17.38,0,26.07-.12,1.88,0,2.91.31,3.25,2.3.71,4.2,1.58,8.38,2.38,12.57C176.35,76.85,174,81.8,170.1,85c-1.47,1.22-2.64,2.8-4.16,3.92a10.16,10.16,0,0,1,6.83,2.67,16.86,16.86,0,0,0,2.73,1.86c1.45.82,3,2.38,4.65,1.32s.47-2.93.24-4.42c-.59-3.74-1.49-7.45-1.06-11.27C179.48,77.75,179.38,75.86,181.77,76.65Z"/><path class="cls-27" d="M98,351.78c5.13-10.48,9.2-21.42,13.83-32.12q8.83-20.4,17.58-40.86c1.78,1.27,1.13,3.31,1.27,4.92,1.21,14.35,3.35,28.59,5.06,42.88a5.12,5.12,0,0,1-.32,3.19c-1.31,2.47-1.91,4.94-.17,7.51.68,1,.25,2.14-.09,3.18-.83,2.54-1.7,5.07-2.55,7.61-2,6-2,6-8,6-8.18,0-16.36,0-24.54,0C98.39,354.09,96.93,354.11,98,351.78Z"/><path class="cls-27" d="M192.8,279c1.91-.23,1.59,1.56,2,2.45,10.22,22.07,19.15,44.7,28.79,67a27.92,27.92,0,0,0,1.35,2.53c.81,1.91,1.22,3.2-1.89,3.13-9.16-.2-18.33-.15-27.49,0-2.37,0-3.49-.79-4.05-3.08a77.82,77.82,0,0,0-2.8-8.69c-.91-2.37-1.44-4.58.07-6.91a2.34,2.34,0,0,0,.31-2.44c-3-5.18-.92-10.51-.33-15.73C190.18,304.51,192.15,291.83,192.8,279Z"/><path class="cls-27" d="M155.54,272.6c-7.4-.06-14.8-.17-22.2-.15-1.77,0-2.3-.62-2.37-2.32-.21-4.75-.5-9.5-.92-14.24-.17-1.95.17-2.84,2.42-2.8q10.25.15,20.49-.09c2.1-.05,2.34.78,2.33,2.54,0,5.72.07,11.45.14,17.16Z"/><path class="cls-28" d="M159.63,161.25a2.32,2.32,0,0,1,1.41-1.52c.31,2,1.93,1.09,2.89,1.1,8.78,0,17.58.16,26.35-.21,4.09-.17,2.84,2.49,3.23,4.5.5,2.62-1.07,2.65-3,2.64-8.79,0-17.58-.14-26.36.09-3.1.08-4.11-.85-3.76-3.84C160.53,163.14,161.15,161.79,159.63,161.25Z"/><path class="cls-27" d="M181.77,76.65c-3.25,2.12-1.33,5.3-1.35,7.92,0,2.85.93,5.72,1.46,8.59s-.59,3.63-3.38,2.93a16.42,16.42,0,0,1-5.95-3.49c-2.18-1.7-4.33-3.07-7.91-2.73a53.8,53.8,0,0,1,8.47-9.19c.73-.64,1.7-1,2-2,1-3.17,3.45-3.8,6.4-3.45C181.62,75.7,181.7,76.18,181.77,76.65Z"/><path class="cls-28" d="M148.51,160.5c1.44,1.94.87,4.05.54,6.14a.65.65,0,0,1-.34,0,1.39,1.39,0,0,1-.31-.18c-5.9,1.55-11.89.5-17.83.55-1.88,0-.75-1.91-.76-2.93,0-1.46.09-2.84,2.35-2.76,4.64.15,9.3.06,13.94-.05C146.89,161.24,148.12,162,148.51,160.5Z"/><path class="cls-29" d="M100,355.37c2.47-1.06,4.77,1.89,7.38.29.48-.3,1.5.48.75,1.66-1.94,3-3.61,6.24-5.72,9.14-1,1.42-2.78,2.4-4.72,1.05a2.52,2.52,0,0,0-.91-.51c-3.76-.58-3.76-.57-1.58-3.92A86.23,86.23,0,0,0,100,355.37Z"/><path class="cls-28" d="M160.25,322.15c.05-2.81,0-5.61.16-8.41,0-.93-.66-2.47,1.18-2.48s1.24,1.52,1.24,2.46c0,11.59,0,23.18,0,34.76,0,1.22.06,2.45,0,3.66-.06,1,.53,2.43-1.35,2.33-1.57-.09-1.08-1.36-1.09-2.21-.08-5.12-.11-10.24-.15-15.36A37.56,37.56,0,0,1,160.25,322.15Z"/><path class="cls-30" d="M128.67,358.14c-.84.47-1.22,1.92-2.75.87-.87-.59-1.31.53-1.55,1.33-.24.44-.5.45-.78,0-.69,0-.33-2.89-1.85-.71-1.78,2.56-4.36,4.33-5.83,7.34-1,2.13-4,.6-6.19.08a2.34,2.34,0,0,1-.87-1.88c.22-1.68.62-3.25,2.87-2.41,1.32.5,1.6-.46,2.21-1.15,1.12-1.26,1.55-3.31,3.73-3.4,1.36,1.46,2,1.44,2.57-.9.7-2.81,2.69-2.05,4.34-2C126.37,355.44,128.94,354.83,128.67,358.14Z"/><path class="cls-27" d="M177.85,58.44H145.49v-.77h32.33Z"/><path class="cls-2" d="M206.6,358.26l1.43-.11c1.14-.54,2.26-1.32,3.49-.2.68,2.37,1.78,4.4,4.3,5.28a.58.58,0,0,1,.72.36,3,3,0,0,1,.43,1.75c-.27.93,1.1,1.63.37,2.62-1.31-1.49-3.47,1.27-4.63-.94A9.17,9.17,0,0,1,206.6,358.26Z"/><path class="cls-31" d="M117.66,358.25c-.82,1-1.66,1.95-2.47,2.94-1.15,1.42-1.65,4.2-4.49,1.91-.35-.29-1,.76-1,1.52-.33.6-.63,1.24-1.5,1.11-2.22-1.55.57-3,.13-4.47.93-3.67,4.74-3.8,7.13-5.67.49-.39,2.12.22,2.9.81C118.9,356.86,117.87,357.6,117.66,358.25Z"/><path class="cls-32" d="M167.65,336.15c1-1.44-1.23-4.3,2.16-4.52,1.51-.1,4-.85,4.41.39.72,2.25-.3,4.84-1.18,7.06-.61,1.55-2.67,1-4,.85C166.31,339.64,168.54,337.36,167.65,336.15Z"/><path class="cls-33" d="M150.12,339.66c-.3-1.55-.7-3.09-.89-4.65-.15-1.15-1.54-3.13.26-3.3s4.69-1.94,5.85,1.45a2.78,2.78,0,0,1,.57.93C157.17,339.45,155.59,341,150.12,339.66Z"/><path class="cls-2" d="M206.6,358.26c1.6,3.22,2.85,6.7,6.11,8.76-1.55,1.05-2.88,1-4-.65a36.43,36.43,0,0,0-3.35-4.35c-1.25-1.3-1.75-4.07-4.85-2.32-.92.53-2.45-1.4-2.35-2.88.06-1.05,1.46-.62,2-.83C203.19,355,204.57,357.3,206.6,358.26Z"/><path class="cls-34" d="M193.53,251.64c.18-2.25-.47-3.1-3.09-3.07-13,.16-25.95,0-38.93,0,2.78-1.6,6.15.58,8.87-1.4,2.24-1.34,4.45-1.66,6.62.14a18.65,18.65,0,0,0,10.21,0,3.62,3.62,0,0,1,5.22-.09,9.94,9.94,0,0,0,8.1-.12c1.21-.71,2.07-2,3.52-2.28C194.32,247.15,194.58,249.45,193.53,251.64Z"/><path class="cls-35" d="M142.63,331.23c1.7-.18,3.77-.77,4.45.69,1,2.12,1.18,4.64,1.5,7,.11.83-.83.59-1.4.47-1.15-.23-2.41-.16-2.77-1.77C143.92,335.53,143.26,333.46,142.63,331.23Z"/><path class="cls-36" d="M180.54,331.22c-1.72,7.71-1.72,7.71-5.65,8.32C174.63,332.68,175.68,331.06,180.54,331.22Z"/><path class="cls-37" d="M155.6,241.39c-2-.1-4.06.66-4-2.46.06-3.52,2.55-1.71,3.94-1.92s3.38-.8,3.48,2.15C159.13,242.69,156.62,240.82,155.6,241.39Z"/><path class="cls-38" d="M167,247.31l-6.62-.14c0-1.5-1-3.71.57-4.29a8.68,8.68,0,0,1,6.05.05C168.35,243.54,168.05,245.81,167,247.31Z"/><path class="cls-39" d="M160.25,322.15V336.9c-1,.7-.16,2.28-1.35,2.92a7.43,7.43,0,0,1-.07-8.05c.86-.61.66-1.14-.14-1.62.08-5.67.12-11.34.27-17,0-1.09-.63-2.41.69-3.26C160,314,158.93,318.11,160.25,322.15Z"/><path class="cls-2" d="M226.51,367.72c-1.51-.29-4.56,1.56-3.25-2.6.59-1.86-1.78-.2-2.28-1.31-1.19-2.67-3.92-4.95-1.71-8.5,2.89,2.29,2.33,6.79,5.47,8.88A4,4,0,0,1,226.51,367.72Z"/><path class="cls-32" d="M172.44,236.89c1.59.09,3.3-.61,3.28,2.12,0,3.2-2.21,2.2-3.8,2.32s-3,.52-3-2.15C168.84,235.79,171.13,237.26,172.44,236.89Z"/><path class="cls-40" d="M140,236.92c1.52.12,3.25-.68,3.29,2.08s-1.62,2.34-3.29,2.39-3.28.15-3.21-2.53C136.86,236,138.78,237.2,140,236.92Z"/><path class="cls-28" d="M144.32,247c.39-1.75-1.42-4.32,2.63-4.5,4.38-.18,2.92,2.55,3.09,4.64C148.13,247.5,146.19,248.76,144.32,247Z"/><path class="cls-38" d="M182.43,247.26l-5.22.09a3.83,3.83,0,0,1,0-4.71,6.32,6.32,0,0,1,1.07-.2c4.79-.14,4.79-.15,4.18,4.8Z"/><path class="cls-38" d="M166.78,335.91c0,.72,0,1.44,0,2.17,0,1,0,2-1.46,1.92-1.21-.09-1.08-1.06-1.07-1.9,0-1.32,0-2.66.08-4,.08-.95-.52-2.43,1.24-2.45s1.08,1.49,1.21,2.43a12.12,12.12,0,0,1,0,1.81Z"/><path class="cls-35" d="M186.91,237c.92.18,2.61-.75,2.38,1.72-.16,1.75-.15,3-2.5,2.77-1.78-.14-2.87-.23-2.89-2.51S185.32,236.92,186.91,237Z"/><path class="cls-34" d="M144.32,247l5.72.14c-.23,1.19-1.62.6-2.12,1.39l-18.34.29c.08-1.35,1.65-.71,2.09-1.57a3.17,3.17,0,0,1,4.26-.28A8.85,8.85,0,0,0,144.32,247Z"/><path class="cls-41" d="M135.93,247l-4.26.28c-.38-2.29-1.52-5.12,2.7-4.59C137.44,243.07,135.27,245.59,135.93,247Z"/><path class="cls-28" d="M158.83,331.77c0,2.69,0,5.37.07,8.05a2.73,2.73,0,0,1-2.24,0c-1.24-2.26-.74-4.61-.37-6.95.27-1.71,1.25-1.8,2.56-1.07Z"/><path class="cls-39" d="M158.85,331.8c-1.3-.24-2.34-.27-2.23,1.6.12,2.14,0,4.28,0,6.42-2.21,1-4.4,1.51-6.54-.16.73.09,1.46.15,2.17.29,2.29.45,3.44-.21,3.08-2.78a29.78,29.78,0,0,1,0-4C156.23,332,156.63,329.54,158.85,331.8Z"/><path class="cls-42" d="M194.05,244.86c-.15,2.34-1.56,2.74-3.52,2.28,0-.73,0-1.45-.07-2.18,0-1.24-.16-2.32,1.74-2.39S194,243.65,194.05,244.86Z"/><path class="cls-43" d="M179.8,339.16c.86-3.08,1.45-5.26,2.08-7.43a1.06,1.06,0,0,1,1.38-.83,1,1,0,0,1,.4.83C182.74,334,182.57,336.67,179.8,339.16Z"/><path class="cls-44" d="M100,355.37a13.25,13.25,0,0,1-4.8,7.71C96.64,360.43,96.18,356.58,100,355.37Z"/><path class="cls-43" d="M143.29,338.12c-2.63-1.3-2.68-4-3.6-6.21a.68.68,0,0,1,.57-1,.94.94,0,0,1,1,.77C142,333.8,142.63,336,143.29,338.12Z"/><path class="cls-45" d="M156.85,30.94q-2,4.57-3.94,9.14A13.35,13.35,0,0,1,156.85,30.94Z"/><path class="cls-46" d="M108.17,365.61l1.48-1c0,.82,0,1.65.07,2.47-.7.4-1.4,1.19-2.22.82-1.06-.47-2.63.68-3.11-.67-.19-.54,1-1.58,1.62-2.4C107,364.36,107.36,365.62,108.17,365.61Z"/><path class="cls-2" d="M216.21,363.32a.66.66,0,0,0-.39-.09l-4.22-7.35c2.61,1.68,3.72,4.33,5.15,6.76A.78.78,0,0,1,216.21,363.32Z"/><path class="cls-2" d="M214.45,355.63a16.76,16.76,0,0,1,4.64,7.56A21,21,0,0,1,214.45,355.63Z"/><path class="cls-47" d="M123.59,360.38l.78,0-.78,2.3-4.71,5.16C120,364.32,122.28,362.65,123.59,360.38Z"/><path class="cls-34" d="M182.48,247.24c.29-4.24.29-4.24-5.25-4.6,1.91-.93,4.15-1.26,5.6.16A3.2,3.2,0,0,1,182.48,247.24Z"/><path class="cls-2" d="M211.52,358c-1.24-1.24-2.23,1.89-3.49.2a2.14,2.14,0,0,1,1.63-2.58C210.71,355.49,211,357,211.52,358Z"/><path class="cls-2" d="M216.21,363.32l.54-.68,3.26,5c-2.15.31-1.86-1.9-3-2.29C216.43,364.78,215.09,364.51,216.21,363.32Z"/><path class="cls-2" d="M221.8,355.61a10.7,10.7,0,0,1,2,6.21c-1-1.94-1.9-3.87-2.84-5.81Z"/><path class="cls-2" d="M227.23,361.12c1.65,2,2.57,4.38,3.72,6.64C227.83,366.6,228,363.58,227.23,361.12Z"/><path class="cls-30" d="M108.17,365.61c-1.35,1.54-1.4-.61-2.16-.77l2.27-3.58C109.57,362.74,106.48,364.12,108.17,365.61Z"/><path class="cls-2" d="M226.51,367.72l-1.77-3.53c2.42-.59,1.4,2.19,2.67,2.77.13.06,1.05,0,.42.59C227.56,367.8,227,367.68,226.51,367.72Z"/><path class="cls-48" d="M162,20.24l-3,5.56a8.22,8.22,0,0,1,2.21-6Z"/><path class="cls-8" d="M174.32,325.06c-1.71,0-3.42.07-5.12,0-1.3-.07-2.34-.5-2.27-2.2s1.07-2.23,2.62-2.25c3.91,0,7.81-.21,11.71-.2.82,0,2.49-.45,2.33.79s.18,3.17-2,3.37l-7.27.72Z"/><path class="cls-49" d="M155.37,324.86c-4.72,2.18-9.67,1.06-14.53.92-1.51,0-1.13-1.61-1.2-2.64-.08-1.22.53-1.77,1.73-1.81,4.13-.14,8.26-.46,12.39-.41,3.47,0,2.33,2.19,1.51,4.05-3.69-3.34-8.06-1-12.07-1.56C147.15,324.82,151.45,323.09,155.37,324.86Z"/><path class="cls-7" d="M178.93,267.12h-1.82c-4.21,0-5.61-2.09-4.39-6.27.33-1.14,1.05-1.15,1.9-1.15q3.09,0,6.19,0c4.67,0,5.81,1.65,4.66,6.21-.3,1.19-.95,1.21-1.81,1.21-1.58,0-3.15,0-4.73,0Z"/><path class="cls-50" d="M171.81,251.23a2.49,2.49,0,0,1-2.53,1.65,1.06,1.06,0,0,1-1.06-1.49,2.05,2.05,0,0,1,2.22-1.5C171.21,249.91,171.85,250.24,171.81,251.23Z"/><path class="cls-51" d="M183.5,250c.5.08,1,.28.94.83a1.83,1.83,0,0,1-2,1.7c-.82,0-1.34-.36-1.23-1.33C181.42,249.63,183.23,251.27,183.5,250Z"/><path class="cls-27" d="M159.62,142.19c1.53,2.32,4.2,1.82,6,1.43,2.72-.6,5.53-.8,8.19-1.68,2-.63,4.46-.42,4.72-3.45a1.81,1.81,0,0,1,1.28-1.19c3.33-.32,4.89-2.37,5.62-5.37.14-.59.51-1.33,1.19-1a2.67,2.67,0,0,1,1.45,1.5c.8,3,2.52,5.53,1.28,9.3-1.07,3.23.67,7.25.76,11,.06,2.19-.71,2.92-2.32,2.58-7.69-1.63-15.14,2.09-22.8.84-1.88-.31-3.89.28-5.62-1.12a2.49,2.49,0,0,0-2.08-.18c-7.1,2.73-14.45.72-21.67,1.1-2.35.12-3-2.88-2.77-4.73.72-5.06,2-10,1.88-15.19a2.91,2.91,0,0,1,1.44-2.81c1.34-.57,1.3,1.08,1.94,1.67,5.23,4.84,11.19,8.11,18.42,8.68a2.28,2.28,0,0,0,2.37-1.37A.49.49,0,0,1,159.62,142.19Z"/><path class="cls-52" d="M159.62,142.19l-.74,0c-8.88-1.77-16.08-6-20.5-14.18-.21-.08-.3-.19-.28-.33s.06-.24.11-.24a30.17,30.17,0,0,1-.52-13.2c1.72.24,1.34,1.68,1.58,2.76-.18,9.21,3.79,15.87,12.12,19.95,8.14,4,16,3.82,23.55-1.35,7-4.83,11.76-15.17,6.62-26.42a21.58,21.58,0,0,0-9.7-10.54C167.3,95.55,162,96.3,157,95.75c-.56-.24-1-.55-1-1.27,9.67-2.84,17.68.3,24,7.51,6.47,7.37,8.19,16,4.17,25.2S173,141.41,162.9,142.05C161.81,142.13,160.71,142.15,159.62,142.19Z"/><path class="cls-53" d="M156,94.48l.84.67c-.23,1.64-1.71,1.55-2.78,1.88-8.4,2.6-12.5,8.71-14,17-.23,1.25.13,2.78-1.58,3.34-.46-1,.21-2.26-.76-3.14C139.56,103.72,145.27,96.78,156,94.48Z"/><path class="cls-54" d="M148.67,64.21c.82-1.7,1.7-.75,2.45,0,2,2.06.68,6.48-2.15,7.16-1.39.34-2.66-.16-2.86-1.52-.33-2.35-.5-4.88,2.65-5.72.57,1.38-1.07,2.76.13,4.4C150.33,66.89,148.84,65.56,148.67,64.21Z"/><path class="cls-27" d="M138.21,127.41a.41.41,0,0,1,.17.57c-.58.87-.62,2.13-2,2.6C136,128.84,135.7,127.36,138.21,127.41Z"/><path class="cls-55" d="M182.36,323.05c-4.31.91-8.75.55-13.14.65a.82.82,0,0,1-.9-.89,1,1,0,0,1,.89-1c4.37,0,8.75,0,13.12,0Z"/><path class="cls-56" d="M155.37,324.86l-13.05.06c-.89,0-1.73-.09-1.76-1.3s.74-1.33,1.67-1.34c3.64,0,7.29,0,10.92-.19,2.51-.15,1.72,1.71,2.12,2.88Z"/><path class="cls-57" d="M178.86,266.09a24,24,0,0,0-2.94,0c-2.12.25-2.42-.87-2.33-2.64.07-1.56-.05-3,2.21-2.82,1.58.11,3.18,0,4.77,0,2.08,0,4.06-.47,4.07,2.94s-2.24,2.35-3.95,2.53A16,16,0,0,1,178.86,266.09Z"/><path class="cls-58" d="M138.45,117.35c.82-2.8,1-5.72,2-8.53,2.82-7.84,8.85-11.61,16.4-13.67,5.61-.49,11.11-.4,16,3,0,.78-.58.91-1.18,1a31.21,31.21,0,0,0-12.86-1.63,25.08,25.08,0,0,0-10.3,4,4.74,4.74,0,0,0-2.1,2.4,6.32,6.32,0,0,1-1.18,1.67c-4.42,6.58-5.4,13.91-2.34,20.93,3.21,7.39,10,11.21,17.92,11.5,13.87.51,24.18-12.16,20.85-25a8,8,0,0,1-.55-3.6c.18-.57.44-1.06,1.16-1,5.25,11.58,1.3,24.24-9.28,29.68-10.94,5.63-26.28,1.18-32.16-9.33C138.77,125.18,138.53,121.28,138.45,117.35Z"/><path class="cls-59" d="M172.06,98.77l.72-.57a20.8,20.8,0,0,1,9.42,10.17l-.65.84a1.57,1.57,0,0,1-1.45-.93C178.29,104.36,174.26,102.34,172.06,98.77Z"/><path class="cls-35" d="M148.67,64.21a2.48,2.48,0,0,1,1.93,2c.22,1.38.17,2.76-1.15,3.59a1.81,1.81,0,0,1-1.68,0c-1-1-.68-2.24-.21-3.39a22.74,22.74,0,0,1,1.2-2.22Z"/><path class="cls-60" d="M172.06,98.77a28.26,28.26,0,0,1,9.49,10.44c3.93,13.43-1.27,24.82-13.11,28.71-8.87,2.92-19.76-.57-25.2-8.07-4.8-6.64-4-18.5,1.65-25.14.93,1,.19,2-.12,3a23.39,23.39,0,0,0-2.57,9.06c1.2-1.06,2.58-1.17,1.47-3.21-.91-1.65,2.23-4.21,4.64-4,.51,1.94-.2,3.84-.21,5.78,0,7.88,5.53,13.7,13.49,14.1,2.67.14,5.3-.62,8-.2,1.25,1,.72,1.75-.29,2.45-.7.49-1.93.56-1.48,1.92,1.85,2.77-.78,3.12-2.08,3-3.1-.38-6.22.47-9.27-.3-2.62-.74-2.79-2.27-.87-3.81,1.57-1.24.5-1.25-.43-1.54a2.52,2.52,0,0,0-3.3.43c-.68.73-1.5,1.28-2.57.7-.84-1.11,0-1.93.49-2.82-1.91,0-1.07-1.38-1.09-2.32-.5-1.71-1.72-3-2.66-4.41a6.36,6.36,0,0,0-.63-.55c-1.44.15-1.92,1.21-2.3,2.35.13.88,1.17,1.08,1.43,1.86.76,4.13,3.8,6.13,7.26,7.74,1.63.81,3,2.16,4.9,2.44,6.4,1.35,12.39.92,17.35-4a22.7,22.7,0,0,1,2.76-3.42,13.34,13.34,0,0,0,3.31-11.84,10.9,10.9,0,0,1-1.85,6.5c-.56.92-1,2.46-2.72,1.43a3.31,3.31,0,0,1,.57-3.11c4.36-6.68-.15-17-8.5-20.24-.8-.31-1.62-.54-2.43-.79-1.32-.55-4-.34-3.85-1.28.48-2.9-1.81-1-2.46-1.8-.32-.36-.7-.6-.64-1.14A20.86,20.86,0,0,1,172.06,98.77Z"/><path class="cls-61" d="M158.2,96.62c2.76.5,4.52,3.1,7.34,3.47-1.9,1.77-4.16,1.09-6.34,1-2.16-.71-4.34-2.3-6.37.35-.22.3-.92,0-1.37-.2a2.32,2.32,0,0,1-.8-1.85A17.3,17.3,0,0,1,158.2,96.62Z"/><path class="cls-61" d="M144.13,107.49l.76-2.78.86-1.51c.59-.33,1.16-.06,1.74,0,1.18.09,1.91-1,3-1.14.93,0,2-.49,2.71.5a8.35,8.35,0,0,1-4.23,5.24c-1.22,0-1.83.94-2.66,1.57a1.79,1.79,0,0,1-2,.36C143.35,109.16,144.2,108.25,144.13,107.49Z"/><path class="cls-60" d="M150.58,102.31c-1.13.55-1.54,2.66-3.42,1.6.23-1,.53-1.94.74-2.92l2.76-1.64a1.36,1.36,0,0,1,.89,1.62C151.53,101.64,151.35,102.19,150.58,102.31Z"/><path class="cls-62" d="M147.9,101c1.89,1.51.32,2.15-.74,2.92l-1.41-.71A3.52,3.52,0,0,1,147.9,101Z"/><path class="cls-27" d="M148.48,107.76l4.56-5.34c1.3-1.62,2.66-3.11,5.07-2.15l7.43-.18c11.32,2.65,16.83,15.4,10.38,24.08-.19.26-.15.69-.22,1a6.49,6.49,0,0,1-2.32,2.61c-1.07.74-1.95,1.9-3.49,1.63-5.34,1.63-10.52,1.69-15.52-1.25-6.36-3.74-8.65-9-7-16.44.21-.94.36-1.89.54-2.84a.75.75,0,0,1-.24-1.06C147.92,107.47,148.2,107.66,148.48,107.76Z"/><path class="cls-63" d="M172.81,127.37c.92-.78,1.42-2.13,2.89-2.16,2.48-2.8,3.06-4.13,4.93-10.59-.71,2.33.84,4.21.56,6.79-.5,4.61-2.85,7.4-6,10.07-.2.16-.09.7-.12,1.06-.69.6-1.26.39-1.77-.26C172.88,130.67,174.42,128.87,172.81,127.37Z"/><path class="cls-64" d="M173.58,131.72c.25.7.84.81,1.48.82-4.66,5.05-10.58,5.66-16.91,4.79-.72-.1-1.42-.33-2.13-.5-.44-.78.26-1,.69-1.26a4.41,4.41,0,0,0,4.16-.21c2-1,3.85.65,5.94.22,3.43-.7-.85-1.07,0-1.53,0-1.63,1.73-1.72,2.25-1.51C170.88,133.27,172.07,131.82,173.58,131.72Z"/><path class="cls-65" d="M148.48,107.76l-.54,1.16a8.62,8.62,0,0,1-4.08,4c.3,1.83,2-.44,2.11,1a2.55,2.55,0,0,1-1.24,2.07c-1.07.7-2,1.58-3.54,2.79.13-4.37.47-8.06,2.94-11.24,1,2.83,2,1.34,2.94,0C147.77,106.5,148.5,105.11,148.48,107.76Z"/><path class="cls-66" d="M149.91,126.54l-.87,1.89c.87.83,1.3-1,2.18-.34-.11,1.46-2.26,1.91-1.82,3.62-3.7-.14-4-3.3-5-5.75-.72-.6-2.53.35-2.3-1.61,1.11-1.07,1.55-3,3.64-2.81l-.07-.07C147.45,122.84,147.38,125.78,149.91,126.54Z"/><path class="cls-67" d="M173.58,131.72c-1.35.79-2,3.63-4.37,1.42-.55,1-2-.41-2.38.91-1.09-1.69-1-2.92,1.35-3,1.12,0,1.81-.35,1.71-1.61l2.92-2.08C175.43,128.4,174.79,130,173.58,131.72Z"/><path class="cls-68" d="M144.37,126c1.94,1.69,2.46,4.62,5,5.75a1.67,1.67,0,0,0,2.08-1c1-3.18,2.39-1.63,3.78-.37-.88,1.72-1.52,3.7-3.94,3.83-3.6-.67-5.58-3.41-7.63-6C143,127.19,144,126.63,144.37,126Z"/><path class="cls-69" d="M151.32,134.16c1.48-1.1,2-3.17,3.94-3.83a4.33,4.33,0,0,1,3.49,1.4c-1.63.64-3.43,1-3.81,2.77,0,.23,1.15.71,1.77,1.07l-.69,1.26C154.36,136.1,152.22,136.22,151.32,134.16Z"/><path class="cls-70" d="M149.91,126.54c-3.65.18-3-3.27-4.27-5.07C147.88,122.47,148.39,124.93,149.91,126.54Z"/><path class="cls-71" d="M145.71,121.54c-1.88.08-2.14,2.25-3.64,2.81-.08-2.45,2-3.45,3.6-4.12C146.8,119.75,145.41,121.07,145.71,121.54Z"/><path class="cls-72" d="M158.11,100.27,153,102.42c-.8-.64-1.72,1.79-2.46-.11l1-1.34c.58-.08,1.53,0,1.67-.27C154.28,98.52,156.41,98.29,158.11,100.27Z"/><path class="cls-73" d="M173.11,117.25c-6.39,6.56-17.22,8-21.27,2.69C159.78,123.53,166.55,121.28,173.11,117.25Z"/><path class="cls-74" d="M158.35,109.8c1.21,0,1.39.88,1.42,1.72,0,1.1-.08,2.31-1.41,2.53-1.07.17-1.43-.8-1.36-1.66C157.07,111.38,157.05,110.18,158.35,109.8Z"/><path class="cls-75" d="M165,113.39c-1.14-.38-1.27-1.34-1.13-2.31s.24-2.17,1.53-1.91,1,1.51,1,2.42A1.57,1.57,0,0,1,165,113.39Z"/><path class="cls-20" d="M154.14,108.49a4,4,0,0,1,4.57-3Z"/><path class="cls-20" d="M164.54,104.71c2.56-.52,4,0,5.6,2.22C168,106.19,166.33,106.3,164.54,104.71Z"/><path class="cls-76" d="M163,188.05v12.18l10.76-6.12Z"/><path class="cls-76" d="M163,202.78v12.27l10.86-6.12Z"/><path class="cls-77" d="M161.45,200.17v-12l-10.64,6Z"/><path class="cls-77" d="M140.09,215a26,26,0,0,0,8.26,8.16V210.3Z"/><path class="cls-77" d="M161.45,215V202.87l-10.67,6.06Z"/><path class="cls-76" d="M149.89,222.39l10.8-6.06-10.8-6.12Z"/><path class="cls-77" d="M174.62,222.45V210.27l-10.79,6.06Z"/><path class="cls-77" d="M185.2,213.59a24.91,24.91,0,0,0,3.05-10.94L177,209Z"/><path class="cls-76" d="M176.18,207.66,187,201.57l-10.86-6.09Z"/><path class="cls-77" d="M174.62,192.83V180.75l-10.73,6Z"/><path class="cls-77" d="M174.62,207.59V195.42l-10.77,6.08Z"/><path class="cls-76" d="M149.89,195.38v12.31l10.87-6.19Z"/><path class="cls-77" d="M161.45,176A26.28,26.28,0,0,0,150,179l11.45,6.44Z"/><path class="cls-76" d="M149.89,180.65V192.9l10.87-6.12Z"/><path class="cls-77" d="M148.35,179.92a25.65,25.65,0,0,0-8.26,8.16l8.26,4.69V179.92Z"/><path class="cls-76" d="M174.55,179A26.45,26.45,0,0,0,163,176v9.5Z"/><path class="cls-76" d="M136.18,202.43a24.86,24.86,0,0,0,3.12,11.25l8.36-4.75Z"/><path class="cls-76" d="M139.3,189.39a25.12,25.12,0,0,0-3.12,11.22l11.48-6.47-8.39-4.75Z"/><path class="cls-77" d="M150,224.08a26,26,0,0,0,11.45,3v-9.4L150,224Z"/><path class="cls-76" d="M184.37,188.11a26.05,26.05,0,0,0-8.19-8.13v12.79Z"/><path class="cls-76" d="M176.18,223.12a25.65,25.65,0,0,0,8.23-8.19l-8.23-4.66v12.85Z"/><path class="cls-77" d="M188.27,200.52a25,25,0,0,0-3.09-11.1l-8.29,4.69Z"/><path class="cls-76" d="M163,227.07a25.93,25.93,0,0,0,11.44-3L163,217.6Z"/><path class="cls-77" d="M148.35,207.56V195.51l-10.67,6Z"/></g></g></svg>